<mxfile host="app.diagrams.net" agent="Mozilla/5.0 (Windows NT 10.0; Win64; x64) AppleWebKit/537.36 (KHTML, like Gecko) Chrome/136.0.0.0 Safari/537.36 Edg/136.0.0.0" version="27.0.5" pages="2">
  <diagram name="QuanLyProject" id="13e1069c-82ec-6db2-03f1-153e76fe0fe0">
    <mxGraphModel dx="1042" dy="580" grid="1" gridSize="10" guides="1" tooltips="1" connect="1" arrows="1" fold="1" page="1" pageScale="1" pageWidth="1100" pageHeight="850" background="none" math="0" shadow="0">
      <root>
        <mxCell id="0" />
        <mxCell id="1" parent="0" />
        <mxCell id="JQ1FOKL0dIYRwgrjahHT-246" value="" style="endArrow=none;dashed=1;html=1;rounded=0;" parent="1" edge="1">
          <mxGeometry width="50" height="50" relative="1" as="geometry">
            <mxPoint x="880" y="2450" as="sourcePoint" />
            <mxPoint x="890" y="160" as="targetPoint" />
          </mxGeometry>
        </mxCell>
        <mxCell id="JQ1FOKL0dIYRwgrjahHT-238" value="" style="endArrow=none;dashed=1;html=1;rounded=0;" parent="1" edge="1">
          <mxGeometry width="50" height="50" relative="1" as="geometry">
            <mxPoint x="267.31" y="2450" as="sourcePoint" />
            <mxPoint x="277.31" y="160" as="targetPoint" />
          </mxGeometry>
        </mxCell>
        <mxCell id="JQ1FOKL0dIYRwgrjahHT-234" value="" style="endArrow=none;dashed=1;html=1;rounded=0;" parent="1" edge="1">
          <mxGeometry width="50" height="50" relative="1" as="geometry">
            <mxPoint x="690" y="2450" as="sourcePoint" />
            <mxPoint x="700" y="160" as="targetPoint" />
          </mxGeometry>
        </mxCell>
        <mxCell id="7baba1c4bc27f4b0-14" value="&lt;font style=&quot;font-size: 10px;&quot;&gt;2. Lay thong tin Project()&lt;/font&gt;" style="html=1;verticalAlign=bottom;endArrow=block;entryX=0.34;entryY=0.004;labelBackgroundColor=none;fontFamily=Verdana;fontSize=12;edgeStyle=elbowEdgeStyle;elbow=vertical;entryDx=0;entryDy=0;entryPerimeter=0;" parent="1" target="7baba1c4bc27f4b0-13" edge="1">
          <mxGeometry relative="1" as="geometry">
            <mxPoint x="264.5" y="200" as="sourcePoint" />
            <mxPoint x="445" y="199" as="targetPoint" />
          </mxGeometry>
        </mxCell>
        <mxCell id="JQ1FOKL0dIYRwgrjahHT-5" value=": CSDL" style="shape=umlActor;verticalLabelPosition=bottom;verticalAlign=top;html=1;outlineConnect=0;" parent="1" vertex="1">
          <mxGeometry x="1005" y="60" width="30" height="60" as="geometry" />
        </mxCell>
        <mxCell id="JQ1FOKL0dIYRwgrjahHT-10" value="" style="group" parent="1" vertex="1" connectable="0">
          <mxGeometry x="40" y="60" width="30" height="2390" as="geometry" />
        </mxCell>
        <mxCell id="7baba1c4bc27f4b0-9" value="&lt;span style=&quot;color: rgba(0, 0, 0, 0); font-family: monospace; font-size: 0px; text-align: start;&quot;&gt;%3CmxGraphModel%3E%3Croot%3E%3CmxCell%20id%3D%220%22%2F%3E%3CmxCell%20id%3D%221%22%20parent%3D%220%22%2F%3E%3CmxCell%20id%3D%222%22%20value%3D%22%22%20style%3D%22html%3D1%3Bpoints%3D%5B%5D%3Bperimeter%3DorthogonalPerimeter%3Brounded%3D0%3Bshadow%3D0%3Bcomic%3D0%3BlabelBackgroundColor%3Dnone%3BstrokeWidth%3D1%3BfontFamily%3DVerdana%3BfontSize%3D12%3Balign%3Dcenter%3B%22%20vertex%3D%221%22%20parent%3D%221%22%3E%3CmxGeometry%20x%3D%22885%22%20y%3D%22240%22%20width%3D%2210%22%20height%3D%2230%22%20as%3D%22geometry%22%2F%3E%3C%2FmxCell%3E%3C%2Froot%3E%3C%2FmxGraphModel%3E&lt;/span&gt;" style="html=1;points=[];perimeter=orthogonalPerimeter;rounded=0;shadow=0;comic=0;labelBackgroundColor=none;strokeWidth=1;fontFamily=Verdana;fontSize=12;align=center;" parent="JQ1FOKL0dIYRwgrjahHT-10" vertex="1">
          <mxGeometry x="10" y="100" width="10" height="2290" as="geometry" />
        </mxCell>
        <mxCell id="JQ1FOKL0dIYRwgrjahHT-4" value=": NguoiQuanTri" style="shape=umlActor;verticalLabelPosition=bottom;verticalAlign=top;html=1;outlineConnect=0;" parent="JQ1FOKL0dIYRwgrjahHT-10" vertex="1">
          <mxGeometry y="-8" width="30" height="65.77981651376146" as="geometry" />
        </mxCell>
        <mxCell id="JQ1FOKL0dIYRwgrjahHT-9" value="&lt;font style=&quot;font-size: 10px;&quot;&gt;1. Chon Quan ly Project()&lt;/font&gt;" style="html=1;verticalAlign=bottom;endArrow=block;labelBackgroundColor=none;fontFamily=Verdana;fontSize=12;edgeStyle=elbowEdgeStyle;elbow=vertical;exitX=1.2;exitY=0.031;exitDx=0;exitDy=0;exitPerimeter=0;" parent="1" edge="1">
          <mxGeometry relative="1" as="geometry">
            <mxPoint x="62" y="160.08000000000004" as="sourcePoint" />
            <mxPoint x="259.5" y="160" as="targetPoint" />
          </mxGeometry>
        </mxCell>
        <mxCell id="JQ1FOKL0dIYRwgrjahHT-13" value="" style="html=1;points=[[0,0,0,0,5],[0,1,0,0,-5],[1,0,0,0,5],[1,1,0,0,-5]];perimeter=orthogonalPerimeter;outlineConnect=0;targetShapes=umlLifeline;portConstraint=eastwest;newEdgeStyle={&quot;curved&quot;:0,&quot;rounded&quot;:0};" parent="1" vertex="1">
          <mxGeometry x="1015" y="160" width="10" height="2290" as="geometry" />
        </mxCell>
        <mxCell id="JQ1FOKL0dIYRwgrjahHT-16" value="&lt;font style=&quot;font-size: 10px;&quot;&gt;5. getProject()&lt;/font&gt;" style="html=1;verticalAlign=bottom;endArrow=block;labelBackgroundColor=none;fontFamily=Verdana;fontSize=12;edgeStyle=elbowEdgeStyle;elbow=vertical;" parent="1" edge="1">
          <mxGeometry relative="1" as="geometry">
            <mxPoint x="505" y="320" as="sourcePoint" />
            <Array as="points">
              <mxPoint x="470" y="320" />
            </Array>
            <mxPoint x="700" y="320" as="targetPoint" />
          </mxGeometry>
        </mxCell>
        <mxCell id="JQ1FOKL0dIYRwgrjahHT-23" value="7. Hien thi danh sach Project()" style="text;html=1;align=center;verticalAlign=middle;resizable=0;points=[];autosize=1;strokeColor=none;fillColor=none;" parent="1" vertex="1">
          <mxGeometry x="280" y="437" width="180" height="30" as="geometry" />
        </mxCell>
        <mxCell id="JQ1FOKL0dIYRwgrjahHT-30" value="9. Hien thi man hinh nhap thong tin Project moi()" style="text;html=1;align=center;verticalAlign=middle;resizable=0;points=[];autosize=1;strokeColor=none;fillColor=none;" parent="1" vertex="1">
          <mxGeometry x="280" y="596" width="280" height="30" as="geometry" />
        </mxCell>
        <mxCell id="JQ1FOKL0dIYRwgrjahHT-33" value="&lt;font style=&quot;font-size: 10px;&quot;&gt;10. Nhap thong tin Project&lt;/font&gt;" style="html=1;verticalAlign=bottom;endArrow=block;labelBackgroundColor=none;fontFamily=Verdana;fontSize=12;edgeStyle=elbowEdgeStyle;elbow=vertical;exitX=1.2;exitY=0.031;exitDx=0;exitDy=0;exitPerimeter=0;entryX=-0.036;entryY=-0.033;entryDx=0;entryDy=0;entryPerimeter=0;" parent="1" target="JQ1FOKL0dIYRwgrjahHT-31" edge="1">
          <mxGeometry relative="1" as="geometry">
            <mxPoint x="60" y="670" as="sourcePoint" />
            <mxPoint x="258" y="670" as="targetPoint" />
          </mxGeometry>
        </mxCell>
        <mxCell id="JQ1FOKL0dIYRwgrjahHT-34" value="&lt;font style=&quot;font-size: 10px;&quot;&gt;11. Click nut Them()&lt;/font&gt;" style="html=1;verticalAlign=bottom;endArrow=block;labelBackgroundColor=none;fontFamily=Verdana;fontSize=12;edgeStyle=elbowEdgeStyle;elbow=vertical;exitX=1.2;exitY=0.031;exitDx=0;exitDy=0;exitPerimeter=0;entryX=-0.196;entryY=0.007;entryDx=0;entryDy=0;entryPerimeter=0;" parent="1" target="JQ1FOKL0dIYRwgrjahHT-32" edge="1">
          <mxGeometry relative="1" as="geometry">
            <mxPoint x="62" y="720" as="sourcePoint" />
            <mxPoint x="260" y="720" as="targetPoint" />
          </mxGeometry>
        </mxCell>
        <mxCell id="JQ1FOKL0dIYRwgrjahHT-45" value="&lt;font style=&quot;font-size: 10px;&quot;&gt;14. createProject()&lt;/font&gt;" style="html=1;verticalAlign=bottom;endArrow=block;labelBackgroundColor=none;fontFamily=Verdana;fontSize=12;edgeStyle=elbowEdgeStyle;elbow=vertical;exitX=1.2;exitY=0.031;exitDx=0;exitDy=0;exitPerimeter=0;" parent="1" edge="1">
          <mxGeometry relative="1" as="geometry">
            <mxPoint x="470" y="870" as="sourcePoint" />
            <mxPoint x="699.5" y="870" as="targetPoint" />
          </mxGeometry>
        </mxCell>
        <mxCell id="JQ1FOKL0dIYRwgrjahHT-50" value="&lt;font style=&quot;font-size: 10px;&quot;&gt;16. Cap nhat bang PROJECT()&lt;/font&gt;" style="html=1;verticalAlign=bottom;endArrow=block;labelBackgroundColor=none;fontFamily=Verdana;fontSize=12;edgeStyle=elbowEdgeStyle;elbow=vertical;" parent="1" edge="1">
          <mxGeometry relative="1" as="geometry">
            <mxPoint x="890" y="970" as="sourcePoint" />
            <mxPoint x="1015" y="970" as="targetPoint" />
          </mxGeometry>
        </mxCell>
        <mxCell id="JQ1FOKL0dIYRwgrjahHT-59" value="18. Hien thi danh sach Project()" style="text;html=1;align=center;verticalAlign=middle;resizable=0;points=[];autosize=1;strokeColor=none;fillColor=none;" parent="1" vertex="1">
          <mxGeometry x="280" y="1060" width="190" height="30" as="geometry" />
        </mxCell>
        <mxCell id="JQ1FOKL0dIYRwgrjahHT-66" value="&lt;font style=&quot;font-size: 10px;&quot;&gt;21. Lay thong tin Project duoc chon()&lt;/font&gt;" style="html=1;verticalAlign=bottom;endArrow=block;labelBackgroundColor=none;fontFamily=Verdana;fontSize=12;edgeStyle=elbowEdgeStyle;elbow=vertical;exitX=1.2;exitY=0.031;exitDx=0;exitDy=0;exitPerimeter=0;" parent="1" edge="1">
          <mxGeometry relative="1" as="geometry">
            <mxPoint x="271" y="1230" as="sourcePoint" />
            <mxPoint x="469" y="1230" as="targetPoint" />
          </mxGeometry>
        </mxCell>
        <mxCell id="JQ1FOKL0dIYRwgrjahHT-70" value="" style="group" parent="1" vertex="1" connectable="0">
          <mxGeometry x="460" y="1280" width="235" height="30" as="geometry" />
        </mxCell>
        <mxCell id="JQ1FOKL0dIYRwgrjahHT-68" value="" style="html=1;points=[];perimeter=orthogonalPerimeter;rounded=0;shadow=0;comic=0;labelBackgroundColor=none;strokeWidth=1;fontFamily=Verdana;fontSize=12;align=center;" parent="JQ1FOKL0dIYRwgrjahHT-70" vertex="1">
          <mxGeometry width="10" height="30" as="geometry" />
        </mxCell>
        <mxCell id="JQ1FOKL0dIYRwgrjahHT-69" value="&lt;font style=&quot;font-size: 10px;&quot;&gt;22. getProjectById()&lt;/font&gt;" style="html=1;verticalAlign=bottom;endArrow=block;labelBackgroundColor=none;fontFamily=Verdana;fontSize=12;edgeStyle=elbowEdgeStyle;elbow=vertical;exitX=1.2;exitY=0.031;exitDx=0;exitDy=0;exitPerimeter=0;" parent="JQ1FOKL0dIYRwgrjahHT-70" edge="1">
          <mxGeometry relative="1" as="geometry">
            <mxPoint x="5" as="sourcePoint" />
            <mxPoint x="235" as="targetPoint" />
          </mxGeometry>
        </mxCell>
        <mxCell id="JQ1FOKL0dIYRwgrjahHT-79" value="&lt;font style=&quot;font-size: 10px;&quot;&gt;24. Hien thi man hinh sua Project()&lt;/font&gt;" style="text;html=1;align=center;verticalAlign=middle;resizable=0;points=[];autosize=1;strokeColor=none;fillColor=none;" parent="1" vertex="1">
          <mxGeometry x="285" y="1416" width="180" height="30" as="geometry" />
        </mxCell>
        <mxCell id="JQ1FOKL0dIYRwgrjahHT-84" value="" style="group" parent="1" vertex="1" connectable="0">
          <mxGeometry x="62.99999999999999" y="1520" width="211.96000000000004" height="30" as="geometry" />
        </mxCell>
        <mxCell id="JQ1FOKL0dIYRwgrjahHT-85" value="" style="html=1;points=[];perimeter=orthogonalPerimeter;rounded=0;shadow=0;comic=0;labelBackgroundColor=none;strokeWidth=1;fontFamily=Verdana;fontSize=12;align=center;" parent="JQ1FOKL0dIYRwgrjahHT-84" vertex="1">
          <mxGeometry x="201.96000000000004" width="10" height="30" as="geometry" />
        </mxCell>
        <mxCell id="JQ1FOKL0dIYRwgrjahHT-86" value="&lt;font style=&quot;font-size: 10px;&quot;&gt;26. CLick Sua()&lt;/font&gt;" style="html=1;verticalAlign=bottom;endArrow=block;labelBackgroundColor=none;fontFamily=Verdana;fontSize=12;edgeStyle=elbowEdgeStyle;elbow=vertical;exitX=1.2;exitY=0.031;exitDx=0;exitDy=0;exitPerimeter=0;" parent="JQ1FOKL0dIYRwgrjahHT-84" edge="1">
          <mxGeometry relative="1" as="geometry">
            <mxPoint as="sourcePoint" />
            <mxPoint x="198" as="targetPoint" />
          </mxGeometry>
        </mxCell>
        <mxCell id="JQ1FOKL0dIYRwgrjahHT-96" value="" style="group" parent="1" vertex="1" connectable="0">
          <mxGeometry x="460" y="1658" width="239.00000000000003" height="30" as="geometry" />
        </mxCell>
        <mxCell id="JQ1FOKL0dIYRwgrjahHT-97" value="" style="group" parent="JQ1FOKL0dIYRwgrjahHT-96" vertex="1" connectable="0">
          <mxGeometry width="211.96000000000004" height="30" as="geometry" />
        </mxCell>
        <mxCell id="JQ1FOKL0dIYRwgrjahHT-98" value="&lt;font style=&quot;font-size: 10px;&quot;&gt;29. Cap nhat bang PROJECT()&lt;/font&gt;" style="html=1;verticalAlign=bottom;endArrow=block;labelBackgroundColor=none;fontFamily=Verdana;fontSize=12;edgeStyle=elbowEdgeStyle;elbow=vertical;exitX=1.2;exitY=0.031;exitDx=0;exitDy=0;exitPerimeter=0;entryX=0.22;entryY=0.047;entryDx=0;entryDy=0;entryPerimeter=0;" parent="JQ1FOKL0dIYRwgrjahHT-97" target="JQ1FOKL0dIYRwgrjahHT-100" edge="1">
          <mxGeometry relative="1" as="geometry">
            <mxPoint as="sourcePoint" />
            <mxPoint x="198" as="targetPoint" />
          </mxGeometry>
        </mxCell>
        <mxCell id="JQ1FOKL0dIYRwgrjahHT-99" value="&lt;span style=&quot;color: rgba(0, 0, 0, 0); font-family: monospace; font-size: 0px; text-align: start;&quot;&gt;%3CmxGraphModel%3E%3Croot%3E%3CmxCell%20id%3D%220%22%2F%3E%3CmxCell%20id%3D%221%22%20parent%3D%220%22%2F%3E%3CmxCell%20id%3D%222%22%20value%3D%22%26lt%3Bfont%20style%3D%26quot%3Bfont-size%3A%2010px%3B%26quot%3B%26gt%3B23.%20return%20Ket%20Qua()%26lt%3B%2Ffont%26gt%3B%22%20style%3D%22html%3D1%3BverticalAlign%3Dbottom%3BendArrow%3Dopen%3Bdashed%3D1%3BendSize%3D8%3BlabelBackgroundColor%3Dnone%3BfontFamily%3DVerdana%3BfontSize%3D12%3BedgeStyle%3DelbowEdgeStyle%3Belbow%3Dvertical%3B%22%20edge%3D%221%22%20parent%3D%221%22%3E%3CmxGeometry%20relative%3D%221%22%20as%3D%22geometry%22%3E%3CmxPoint%20x%3D%22261.96%22%20y%3D%221330%22%20as%3D%22targetPoint%22%2F%3E%3CArray%20as%3D%22points%22%3E%3CmxPoint%20x%3D%22261.96%22%20y%3D%221330%22%2F%3E%3CmxPoint%20x%3D%22291.96%22%20y%3D%221330%22%2F%3E%3C%2FArray%3E%3CmxPoint%20x%3D%22476.96%22%20y%3D%221330%22%20as%3D%22sourcePoint%22%2F%3E%3C%2FmxGeometry%3E%3C%2FmxCell%3E%3CmxCell%20id%3D%223%22%20value%3D%22%22%20style%3D%22group%22%20vertex%3D%221%22%20connectable%3D%220%22%20parent%3D%221%22%3E%3CmxGeometry%20x%3D%22261.96%22%20y%3D%221360%22%20width%3D%2264.62%22%20height%3D%22112.02000000000004%22%20as%3D%22geometry%22%2F%3E%3C%2FmxCell%3E%3CmxCell%20id%3D%224%22%20value%3D%22%22%20style%3D%22html%3D1%3Bpoints%3D%5B%5D%3Bperimeter%3DorthogonalPerimeter%3Brounded%3D0%3Bshadow%3D0%3Bcomic%3D0%3BlabelBackgroundColor%3Dnone%3BstrokeWidth%3D1%3BfontFamily%3DVerdana%3BfontSize%3D12%3Balign%3Dcenter%3B%22%20vertex%3D%221%22%20parent%3D%223%22%3E%3CmxGeometry%20y%3D%2220.02000000000004%22%20width%3D%2210%22%20height%3D%2280%22%20as%3D%22geometry%22%2F%3E%3C%2FmxCell%3E%3CmxCell%20id%3D%225%22%20value%3D%22%22%20style%3D%22html%3D1%3BverticalAlign%3Dbottom%3BendArrow%3Dblock%3BlabelBackgroundColor%3Dnone%3BfontFamily%3DVerdana%3BfontSize%3D12%3Belbow%3Dvertical%3BedgeStyle%3DorthogonalEdgeStyle%3Bcurved%3D1%3BentryX%3D1%3BentryY%3D0.286%3BentryPerimeter%3D0%3BexitX%3D1.038%3BexitY%3D0.345%3BexitPerimeter%3D0%3B%22%20edge%3D%221%22%20parent%3D%223%22%3E%3CmxGeometry%20x%3D%220.2984%22%20y%3D%2214%22%20relative%3D%221%22%20as%3D%22geometry%22%3E%3CmxPoint%20x%3D%2210.000000000000114%22%20y%3D%2220.020000000000024%22%20as%3D%22sourcePoint%22%2F%3E%3CmxPoint%20x%3D%2214.620000000000005%22%20y%3D%2257.93999999999998%22%20as%3D%22targetPoint%22%2F%3E%3CArray%20as%3D%22points%22%3E%3CmxPoint%20x%3D%2264.62%22%20y%3D%2219.92%22%2F%3E%3CmxPoint%20x%3D%2264.62%22%20y%3D%2257.92%22%2F%3E%3C%2FArray%3E%3CmxPoint%20x%3D%221%22%20as%3D%22offset%22%2F%3E%3C%2FmxGeometry%3E%3C%2FmxCell%3E%3CmxCell%20id%3D%226%22%20value%3D%22%22%20style%3D%22html%3D1%3Bpoints%3D%5B%5D%3Bperimeter%3DorthogonalPerimeter%3Brounded%3D0%3Bshadow%3D0%3Bcomic%3D0%3BlabelBackgroundColor%3Dnone%3BstrokeWidth%3D1%3BfontFamily%3DVerdana%3BfontSize%3D12%3Balign%3Dcenter%3B%22%20vertex%3D%221%22%20parent%3D%223%22%3E%3CmxGeometry%20x%3D%225%22%20y%3D%2257.02000000000004%22%20width%3D%2210%22%20height%3D%2230%22%20as%3D%22geometry%22%2F%3E%3C%2FmxCell%3E%3CmxCell%20id%3D%227%22%20value%3D%22%22%20style%3D%22html%3D1%3Bpoints%3D%5B%5D%3Bperimeter%3DorthogonalPerimeter%3Brounded%3D0%3Bshadow%3D0%3Bcomic%3D0%3BlabelBackgroundColor%3Dnone%3BstrokeWidth%3D1%3BfontFamily%3DVerdana%3BfontSize%3D12%3Balign%3Dcenter%3B%22%20vertex%3D%221%22%20parent%3D%221%22%3E%3CmxGeometry%20x%3D%22263.2900000000001%22%20y%3D%221330%22%20width%3D%2210%22%20height%3D%2230%22%20as%3D%22geometry%22%2F%3E%3C%2FmxCell%3E%3C%2Froot%3E%3C%2FmxGraphModel%3E&lt;/span&gt;" style="html=1;points=[];perimeter=orthogonalPerimeter;rounded=0;shadow=0;comic=0;labelBackgroundColor=none;strokeWidth=1;fontFamily=Verdana;fontSize=12;align=center;" parent="JQ1FOKL0dIYRwgrjahHT-97" vertex="1">
          <mxGeometry x="5.684341886080802e-14" width="10" height="30" as="geometry" />
        </mxCell>
        <mxCell id="JQ1FOKL0dIYRwgrjahHT-114" value="32. Hien thi danh sach Project()" style="text;html=1;align=center;verticalAlign=middle;resizable=0;points=[];autosize=1;strokeColor=none;fillColor=none;" parent="1" vertex="1">
          <mxGeometry x="280" y="1850" width="190" height="30" as="geometry" />
        </mxCell>
        <mxCell id="JQ1FOKL0dIYRwgrjahHT-125" value="35. Hien thi hop thoai xac nhan Xoa()" style="text;html=1;align=center;verticalAlign=middle;resizable=0;points=[];autosize=1;strokeColor=none;fillColor=none;" parent="1" vertex="1">
          <mxGeometry x="261" y="2060" width="220" height="30" as="geometry" />
        </mxCell>
        <mxCell id="JQ1FOKL0dIYRwgrjahHT-126" value="" style="group" parent="1" vertex="1" connectable="0">
          <mxGeometry x="61.329999999999984" y="1980" width="211.96000000000004" height="30" as="geometry" />
        </mxCell>
        <mxCell id="JQ1FOKL0dIYRwgrjahHT-127" value="&lt;span style=&quot;color: rgba(0, 0, 0, 0); font-family: monospace; font-size: 0px; text-align: start;&quot;&gt;%3CmxGraphModel%3E%3Croot%3E%3CmxCell%20id%3D%220%22%2F%3E%3CmxCell%20id%3D%221%22%20parent%3D%220%22%2F%3E%3CmxCell%20id%3D%222%22%20value%3D%22%22%20style%3D%22group%22%20vertex%3D%221%22%20connectable%3D%220%22%20parent%3D%221%22%3E%3CmxGeometry%20x%3D%2259.99999999999999%22%20y%3D%221520%22%20width%3D%22211.96000000000004%22%20height%3D%2230%22%20as%3D%22geometry%22%2F%3E%3C%2FmxCell%3E%3CmxCell%20id%3D%223%22%20value%3D%22%22%20style%3D%22html%3D1%3Bpoints%3D%5B%5D%3Bperimeter%3DorthogonalPerimeter%3Brounded%3D0%3Bshadow%3D0%3Bcomic%3D0%3BlabelBackgroundColor%3Dnone%3BstrokeWidth%3D1%3BfontFamily%3DVerdana%3BfontSize%3D12%3Balign%3Dcenter%3B%22%20vertex%3D%221%22%20parent%3D%222%22%3E%3CmxGeometry%20x%3D%22201.96000000000004%22%20width%3D%2210%22%20height%3D%2230%22%20as%3D%22geometry%22%2F%3E%3C%2FmxCell%3E%3CmxCell%20id%3D%224%22%20value%3D%22%26lt%3Bfont%20style%3D%26quot%3Bfont-size%3A%2010px%3B%26quot%3B%26gt%3B26.%20CLick%20Sua()%26lt%3B%2Ffont%26gt%3B%22%20style%3D%22html%3D1%3BverticalAlign%3Dbottom%3BendArrow%3Dblock%3BlabelBackgroundColor%3Dnone%3BfontFamily%3DVerdana%3BfontSize%3D12%3BedgeStyle%3DelbowEdgeStyle%3Belbow%3Dvertical%3BexitX%3D1.2%3BexitY%3D0.031%3BexitDx%3D0%3BexitDy%3D0%3BexitPerimeter%3D0%3B%22%20edge%3D%221%22%20parent%3D%222%22%3E%3CmxGeometry%20relative%3D%221%22%20as%3D%22geometry%22%3E%3CmxPoint%20as%3D%22sourcePoint%22%2F%3E%3CmxPoint%20x%3D%22198%22%20as%3D%22targetPoint%22%2F%3E%3C%2FmxGeometry%3E%3C%2FmxCell%3E%3C%2Froot%3E%3C%2FmxGraphModel%3E&lt;/span&gt;" style="html=1;points=[];perimeter=orthogonalPerimeter;rounded=0;shadow=0;comic=0;labelBackgroundColor=none;strokeWidth=1;fontFamily=Verdana;fontSize=12;align=center;" parent="JQ1FOKL0dIYRwgrjahHT-126" vertex="1">
          <mxGeometry x="201.96000000000004" width="10" height="30" as="geometry" />
        </mxCell>
        <mxCell id="JQ1FOKL0dIYRwgrjahHT-128" value="&lt;font style=&quot;font-size: 10px;&quot;&gt;34. Click Xoa()&lt;/font&gt;" style="html=1;verticalAlign=bottom;endArrow=block;labelBackgroundColor=none;fontFamily=Verdana;fontSize=12;edgeStyle=elbowEdgeStyle;elbow=vertical;exitX=1.2;exitY=0.031;exitDx=0;exitDy=0;exitPerimeter=0;" parent="JQ1FOKL0dIYRwgrjahHT-126" edge="1">
          <mxGeometry relative="1" as="geometry">
            <mxPoint as="sourcePoint" />
            <mxPoint x="198" as="targetPoint" />
          </mxGeometry>
        </mxCell>
        <mxCell id="JQ1FOKL0dIYRwgrjahHT-129" value="" style="group" parent="1" vertex="1" connectable="0">
          <mxGeometry x="262.99999999999994" y="2163" width="211.96000000000004" height="30" as="geometry" />
        </mxCell>
        <mxCell id="JQ1FOKL0dIYRwgrjahHT-130" value="&lt;span style=&quot;color: rgba(0, 0, 0, 0); font-family: monospace; font-size: 0px; text-align: start;&quot;&gt;%3CmxGraphModel%3E%3Croot%3E%3CmxCell%20id%3D%220%22%2F%3E%3CmxCell%20id%3D%221%22%20parent%3D%220%22%2F%3E%3CmxCell%20id%3D%222%22%20value%3D%22%26lt%3Bfont%20style%3D%26quot%3Bfont-size%3A%2010px%3B%26quot%3B%26gt%3B23.%20return%20Ket%20Qua()%26lt%3B%2Ffont%26gt%3B%22%20style%3D%22html%3D1%3BverticalAlign%3Dbottom%3BendArrow%3Dopen%3Bdashed%3D1%3BendSize%3D8%3BlabelBackgroundColor%3Dnone%3BfontFamily%3DVerdana%3BfontSize%3D12%3BedgeStyle%3DelbowEdgeStyle%3Belbow%3Dvertical%3B%22%20edge%3D%221%22%20parent%3D%221%22%3E%3CmxGeometry%20relative%3D%221%22%20as%3D%22geometry%22%3E%3CmxPoint%20x%3D%22261.96%22%20y%3D%221330%22%20as%3D%22targetPoint%22%2F%3E%3CArray%20as%3D%22points%22%3E%3CmxPoint%20x%3D%22261.96%22%20y%3D%221330%22%2F%3E%3CmxPoint%20x%3D%22291.96%22%20y%3D%221330%22%2F%3E%3C%2FArray%3E%3CmxPoint%20x%3D%22476.96%22%20y%3D%221330%22%20as%3D%22sourcePoint%22%2F%3E%3C%2FmxGeometry%3E%3C%2FmxCell%3E%3CmxCell%20id%3D%223%22%20value%3D%22%22%20style%3D%22group%22%20vertex%3D%221%22%20connectable%3D%220%22%20parent%3D%221%22%3E%3CmxGeometry%20x%3D%22261.96%22%20y%3D%221360%22%20width%3D%2264.62%22%20height%3D%22112.02000000000004%22%20as%3D%22geometry%22%2F%3E%3C%2FmxCell%3E%3CmxCell%20id%3D%224%22%20value%3D%22%22%20style%3D%22html%3D1%3Bpoints%3D%5B%5D%3Bperimeter%3DorthogonalPerimeter%3Brounded%3D0%3Bshadow%3D0%3Bcomic%3D0%3BlabelBackgroundColor%3Dnone%3BstrokeWidth%3D1%3BfontFamily%3DVerdana%3BfontSize%3D12%3Balign%3Dcenter%3B%22%20vertex%3D%221%22%20parent%3D%223%22%3E%3CmxGeometry%20y%3D%2220.02000000000004%22%20width%3D%2210%22%20height%3D%2280%22%20as%3D%22geometry%22%2F%3E%3C%2FmxCell%3E%3CmxCell%20id%3D%225%22%20value%3D%22%22%20style%3D%22html%3D1%3BverticalAlign%3Dbottom%3BendArrow%3Dblock%3BlabelBackgroundColor%3Dnone%3BfontFamily%3DVerdana%3BfontSize%3D12%3Belbow%3Dvertical%3BedgeStyle%3DorthogonalEdgeStyle%3Bcurved%3D1%3BentryX%3D1%3BentryY%3D0.286%3BentryPerimeter%3D0%3BexitX%3D1.038%3BexitY%3D0.345%3BexitPerimeter%3D0%3B%22%20edge%3D%221%22%20parent%3D%223%22%3E%3CmxGeometry%20x%3D%220.2984%22%20y%3D%2214%22%20relative%3D%221%22%20as%3D%22geometry%22%3E%3CmxPoint%20x%3D%2210.000000000000114%22%20y%3D%2220.020000000000024%22%20as%3D%22sourcePoint%22%2F%3E%3CmxPoint%20x%3D%2214.620000000000005%22%20y%3D%2257.93999999999998%22%20as%3D%22targetPoint%22%2F%3E%3CArray%20as%3D%22points%22%3E%3CmxPoint%20x%3D%2264.62%22%20y%3D%2219.92%22%2F%3E%3CmxPoint%20x%3D%2264.62%22%20y%3D%2257.92%22%2F%3E%3C%2FArray%3E%3CmxPoint%20x%3D%221%22%20as%3D%22offset%22%2F%3E%3C%2FmxGeometry%3E%3C%2FmxCell%3E%3CmxCell%20id%3D%226%22%20value%3D%22%22%20style%3D%22html%3D1%3Bpoints%3D%5B%5D%3Bperimeter%3DorthogonalPerimeter%3Brounded%3D0%3Bshadow%3D0%3Bcomic%3D0%3BlabelBackgroundColor%3Dnone%3BstrokeWidth%3D1%3BfontFamily%3DVerdana%3BfontSize%3D12%3Balign%3Dcenter%3B%22%20vertex%3D%221%22%20parent%3D%223%22%3E%3CmxGeometry%20x%3D%225%22%20y%3D%2257.02000000000004%22%20width%3D%2210%22%20height%3D%2230%22%20as%3D%22geometry%22%2F%3E%3C%2FmxCell%3E%3CmxCell%20id%3D%227%22%20value%3D%22%22%20style%3D%22html%3D1%3Bpoints%3D%5B%5D%3Bperimeter%3DorthogonalPerimeter%3Brounded%3D0%3Bshadow%3D0%3Bcomic%3D0%3BlabelBackgroundColor%3Dnone%3BstrokeWidth%3D1%3BfontFamily%3DVerdana%3BfontSize%3D12%3Balign%3Dcenter%3B%22%20vertex%3D%221%22%20parent%3D%221%22%3E%3CmxGeometry%20x%3D%22263.2900000000001%22%20y%3D%221330%22%20width%3D%2210%22%20height%3D%2230%22%20as%3D%22geometry%22%2F%3E%3C%2FmxCell%3E%3C%2Froot%3E%3C%2FmxGraphModel%3E&lt;/span&gt;" style="html=1;points=[];perimeter=orthogonalPerimeter;rounded=0;shadow=0;comic=0;labelBackgroundColor=none;strokeWidth=1;fontFamily=Verdana;fontSize=12;align=center;" parent="JQ1FOKL0dIYRwgrjahHT-129" vertex="1">
          <mxGeometry x="192.96000000000004" width="10" height="30" as="geometry" />
        </mxCell>
        <mxCell id="JQ1FOKL0dIYRwgrjahHT-131" value="&lt;font style=&quot;font-size: 10px;&quot;&gt;37. Xoa Project duoc chon()&lt;/font&gt;" style="html=1;verticalAlign=bottom;endArrow=block;labelBackgroundColor=none;fontFamily=Verdana;fontSize=12;edgeStyle=elbowEdgeStyle;elbow=vertical;exitX=1.2;exitY=0.031;exitDx=0;exitDy=0;exitPerimeter=0;" parent="JQ1FOKL0dIYRwgrjahHT-129" edge="1">
          <mxGeometry relative="1" as="geometry">
            <mxPoint as="sourcePoint" />
            <mxPoint x="198" as="targetPoint" />
          </mxGeometry>
        </mxCell>
        <mxCell id="JQ1FOKL0dIYRwgrjahHT-132" value="" style="html=1;points=[];perimeter=orthogonalPerimeter;rounded=0;shadow=0;comic=0;labelBackgroundColor=none;strokeWidth=1;fontFamily=Verdana;fontSize=12;align=center;" parent="JQ1FOKL0dIYRwgrjahHT-129" vertex="1">
          <mxGeometry x="5.684341886080802e-14" width="10" height="30" as="geometry" />
        </mxCell>
        <mxCell id="JQ1FOKL0dIYRwgrjahHT-142" value="" style="group" parent="1" vertex="1" connectable="0">
          <mxGeometry x="465" y="2210" width="239.00000000000003" height="30" as="geometry" />
        </mxCell>
        <mxCell id="JQ1FOKL0dIYRwgrjahHT-146" value="" style="html=1;points=[];perimeter=orthogonalPerimeter;rounded=0;shadow=0;comic=0;labelBackgroundColor=none;strokeWidth=1;fontFamily=Verdana;fontSize=12;align=center;" parent="JQ1FOKL0dIYRwgrjahHT-142" vertex="1">
          <mxGeometry x="221.00000000000003" width="10" height="30" as="geometry" />
        </mxCell>
        <mxCell id="JQ1FOKL0dIYRwgrjahHT-147" value="" style="html=1;points=[];perimeter=orthogonalPerimeter;rounded=0;shadow=0;comic=0;labelBackgroundColor=none;strokeWidth=1;fontFamily=Verdana;fontSize=12;align=center;" parent="1" vertex="1">
          <mxGeometry x="878" y="2260" width="10" height="30" as="geometry" />
        </mxCell>
        <mxCell id="JQ1FOKL0dIYRwgrjahHT-148" value="" style="group" parent="1" vertex="1" connectable="0">
          <mxGeometry x="464" y="2260" width="239.00000000000003" height="30" as="geometry" />
        </mxCell>
        <mxCell id="JQ1FOKL0dIYRwgrjahHT-149" value="" style="group" parent="JQ1FOKL0dIYRwgrjahHT-148" vertex="1" connectable="0">
          <mxGeometry x="-8" width="211.96000000000004" height="30" as="geometry" />
        </mxCell>
        <mxCell id="JQ1FOKL0dIYRwgrjahHT-150" value="&lt;font style=&quot;font-size: 10px;&quot;&gt;39. Cap nhat bang PROJECT()&lt;/font&gt;" style="html=1;verticalAlign=bottom;endArrow=block;labelBackgroundColor=none;fontFamily=Verdana;fontSize=12;edgeStyle=elbowEdgeStyle;elbow=vertical;exitX=1.2;exitY=0.031;exitDx=0;exitDy=0;exitPerimeter=0;entryX=0.22;entryY=0.047;entryDx=0;entryDy=0;entryPerimeter=0;" parent="JQ1FOKL0dIYRwgrjahHT-149" target="JQ1FOKL0dIYRwgrjahHT-147" edge="1">
          <mxGeometry relative="1" as="geometry">
            <mxPoint as="sourcePoint" />
            <mxPoint x="198" as="targetPoint" />
          </mxGeometry>
        </mxCell>
        <mxCell id="JQ1FOKL0dIYRwgrjahHT-151" value="&lt;span style=&quot;color: rgba(0, 0, 0, 0); font-family: monospace; font-size: 0px; text-align: start;&quot;&gt;%3CmxGraphModel%3E%3Croot%3E%3CmxCell%20id%3D%220%22%2F%3E%3CmxCell%20id%3D%221%22%20parent%3D%220%22%2F%3E%3CmxCell%20id%3D%222%22%20value%3D%22%26lt%3Bfont%20style%3D%26quot%3Bfont-size%3A%2010px%3B%26quot%3B%26gt%3B23.%20return%20Ket%20Qua()%26lt%3B%2Ffont%26gt%3B%22%20style%3D%22html%3D1%3BverticalAlign%3Dbottom%3BendArrow%3Dopen%3Bdashed%3D1%3BendSize%3D8%3BlabelBackgroundColor%3Dnone%3BfontFamily%3DVerdana%3BfontSize%3D12%3BedgeStyle%3DelbowEdgeStyle%3Belbow%3Dvertical%3B%22%20edge%3D%221%22%20parent%3D%221%22%3E%3CmxGeometry%20relative%3D%221%22%20as%3D%22geometry%22%3E%3CmxPoint%20x%3D%22261.96%22%20y%3D%221330%22%20as%3D%22targetPoint%22%2F%3E%3CArray%20as%3D%22points%22%3E%3CmxPoint%20x%3D%22261.96%22%20y%3D%221330%22%2F%3E%3CmxPoint%20x%3D%22291.96%22%20y%3D%221330%22%2F%3E%3C%2FArray%3E%3CmxPoint%20x%3D%22476.96%22%20y%3D%221330%22%20as%3D%22sourcePoint%22%2F%3E%3C%2FmxGeometry%3E%3C%2FmxCell%3E%3CmxCell%20id%3D%223%22%20value%3D%22%22%20style%3D%22group%22%20vertex%3D%221%22%20connectable%3D%220%22%20parent%3D%221%22%3E%3CmxGeometry%20x%3D%22261.96%22%20y%3D%221360%22%20width%3D%2264.62%22%20height%3D%22112.02000000000004%22%20as%3D%22geometry%22%2F%3E%3C%2FmxCell%3E%3CmxCell%20id%3D%224%22%20value%3D%22%22%20style%3D%22html%3D1%3Bpoints%3D%5B%5D%3Bperimeter%3DorthogonalPerimeter%3Brounded%3D0%3Bshadow%3D0%3Bcomic%3D0%3BlabelBackgroundColor%3Dnone%3BstrokeWidth%3D1%3BfontFamily%3DVerdana%3BfontSize%3D12%3Balign%3Dcenter%3B%22%20vertex%3D%221%22%20parent%3D%223%22%3E%3CmxGeometry%20y%3D%2220.02000000000004%22%20width%3D%2210%22%20height%3D%2280%22%20as%3D%22geometry%22%2F%3E%3C%2FmxCell%3E%3CmxCell%20id%3D%225%22%20value%3D%22%22%20style%3D%22html%3D1%3BverticalAlign%3Dbottom%3BendArrow%3Dblock%3BlabelBackgroundColor%3Dnone%3BfontFamily%3DVerdana%3BfontSize%3D12%3Belbow%3Dvertical%3BedgeStyle%3DorthogonalEdgeStyle%3Bcurved%3D1%3BentryX%3D1%3BentryY%3D0.286%3BentryPerimeter%3D0%3BexitX%3D1.038%3BexitY%3D0.345%3BexitPerimeter%3D0%3B%22%20edge%3D%221%22%20parent%3D%223%22%3E%3CmxGeometry%20x%3D%220.2984%22%20y%3D%2214%22%20relative%3D%221%22%20as%3D%22geometry%22%3E%3CmxPoint%20x%3D%2210.000000000000114%22%20y%3D%2220.020000000000024%22%20as%3D%22sourcePoint%22%2F%3E%3CmxPoint%20x%3D%2214.620000000000005%22%20y%3D%2257.93999999999998%22%20as%3D%22targetPoint%22%2F%3E%3CArray%20as%3D%22points%22%3E%3CmxPoint%20x%3D%2264.62%22%20y%3D%2219.92%22%2F%3E%3CmxPoint%20x%3D%2264.62%22%20y%3D%2257.92%22%2F%3E%3C%2FArray%3E%3CmxPoint%20x%3D%221%22%20as%3D%22offset%22%2F%3E%3C%2FmxGeometry%3E%3C%2FmxCell%3E%3CmxCell%20id%3D%226%22%20value%3D%22%22%20style%3D%22html%3D1%3Bpoints%3D%5B%5D%3Bperimeter%3DorthogonalPerimeter%3Brounded%3D0%3Bshadow%3D0%3Bcomic%3D0%3BlabelBackgroundColor%3Dnone%3BstrokeWidth%3D1%3BfontFamily%3DVerdana%3BfontSize%3D12%3Balign%3Dcenter%3B%22%20vertex%3D%221%22%20parent%3D%223%22%3E%3CmxGeometry%20x%3D%225%22%20y%3D%2257.02000000000004%22%20width%3D%2210%22%20height%3D%2230%22%20as%3D%22geometry%22%2F%3E%3C%2FmxCell%3E%3CmxCell%20id%3D%227%22%20value%3D%22%22%20style%3D%22html%3D1%3Bpoints%3D%5B%5D%3Bperimeter%3DorthogonalPerimeter%3Brounded%3D0%3Bshadow%3D0%3Bcomic%3D0%3BlabelBackgroundColor%3Dnone%3BstrokeWidth%3D1%3BfontFamily%3DVerdana%3BfontSize%3D12%3Balign%3Dcenter%3B%22%20vertex%3D%221%22%20parent%3D%221%22%3E%3CmxGeometry%20x%3D%22263.2900000000001%22%20y%3D%221330%22%20width%3D%2210%22%20height%3D%2230%22%20as%3D%22geometry%22%2F%3E%3C%2FmxCell%3E%3C%2Froot%3E%3C%2FmxGraphModel%3E&lt;/span&gt;" style="html=1;points=[];perimeter=orthogonalPerimeter;rounded=0;shadow=0;comic=0;labelBackgroundColor=none;strokeWidth=1;fontFamily=Verdana;fontSize=12;align=center;" parent="JQ1FOKL0dIYRwgrjahHT-149" vertex="1">
          <mxGeometry x="5.684341886080802e-14" width="10" height="30" as="geometry" />
        </mxCell>
        <mxCell id="JQ1FOKL0dIYRwgrjahHT-152" value="" style="group" parent="1" vertex="1" connectable="0">
          <mxGeometry x="880.9972384937239" y="1710" width="124.0027615062761" height="30" as="geometry" />
        </mxCell>
        <mxCell id="JQ1FOKL0dIYRwgrjahHT-103" value="&lt;span style=&quot;font-size: 10px;&quot;&gt;30. Cap nhat bang PROJECT()&lt;/span&gt;" style="html=1;verticalAlign=bottom;endArrow=block;labelBackgroundColor=none;fontFamily=Verdana;fontSize=12;edgeStyle=elbowEdgeStyle;elbow=horizontal;exitX=1.2;exitY=0.031;exitDx=0;exitDy=0;exitPerimeter=0;" parent="JQ1FOKL0dIYRwgrjahHT-152" edge="1">
          <mxGeometry relative="1" as="geometry">
            <mxPoint x="4.0027615062761015" as="sourcePoint" />
            <mxPoint x="124.0027615062761" as="targetPoint" />
          </mxGeometry>
        </mxCell>
        <mxCell id="JQ1FOKL0dIYRwgrjahHT-104" value="" style="html=1;points=[];perimeter=orthogonalPerimeter;rounded=0;shadow=0;comic=0;labelBackgroundColor=none;strokeWidth=1;fontFamily=Verdana;fontSize=12;align=center;" parent="JQ1FOKL0dIYRwgrjahHT-152" vertex="1">
          <mxGeometry x="-1" width="10" height="30" as="geometry" />
        </mxCell>
        <mxCell id="JQ1FOKL0dIYRwgrjahHT-153" value="" style="group" parent="1" vertex="1" connectable="0">
          <mxGeometry x="880.9972384937239" y="2312" width="124.0027615062761" height="30" as="geometry" />
        </mxCell>
        <mxCell id="JQ1FOKL0dIYRwgrjahHT-154" value="&lt;span style=&quot;font-size: 10px;&quot;&gt;40. Cap nhat bang PROJECT()&lt;/span&gt;" style="html=1;verticalAlign=bottom;endArrow=block;labelBackgroundColor=none;fontFamily=Verdana;fontSize=12;edgeStyle=elbowEdgeStyle;elbow=horizontal;exitX=1.2;exitY=0.031;exitDx=0;exitDy=0;exitPerimeter=0;" parent="JQ1FOKL0dIYRwgrjahHT-153" edge="1">
          <mxGeometry relative="1" as="geometry">
            <mxPoint x="4.0027615062761015" as="sourcePoint" />
            <mxPoint x="124.0027615062761" as="targetPoint" />
          </mxGeometry>
        </mxCell>
        <mxCell id="JQ1FOKL0dIYRwgrjahHT-155" value="" style="html=1;points=[];perimeter=orthogonalPerimeter;rounded=0;shadow=0;comic=0;labelBackgroundColor=none;strokeWidth=1;fontFamily=Verdana;fontSize=12;align=center;" parent="JQ1FOKL0dIYRwgrjahHT-153" vertex="1">
          <mxGeometry x="-3" width="10" height="30" as="geometry" />
        </mxCell>
        <mxCell id="JQ1FOKL0dIYRwgrjahHT-164" value="42. Hien thi danh sach Project()" style="text;html=1;align=center;verticalAlign=middle;resizable=0;points=[];autosize=1;strokeColor=none;fillColor=none;" parent="1" vertex="1">
          <mxGeometry x="276" y="2408" width="190" height="30" as="geometry" />
        </mxCell>
        <mxCell id="JQ1FOKL0dIYRwgrjahHT-17" value="" style="html=1;points=[];perimeter=orthogonalPerimeter;rounded=0;shadow=0;comic=0;labelBackgroundColor=none;strokeWidth=1;fontFamily=Verdana;fontSize=12;align=center;" parent="1" vertex="1">
          <mxGeometry x="695" y="320" width="10" height="30" as="geometry" />
        </mxCell>
        <mxCell id="JQ1FOKL0dIYRwgrjahHT-44" value="" style="html=1;points=[];perimeter=orthogonalPerimeter;rounded=0;shadow=0;comic=0;labelBackgroundColor=none;strokeWidth=1;fontFamily=Verdana;fontSize=12;align=center;" parent="1" vertex="1">
          <mxGeometry x="692" y="870" width="10" height="30" as="geometry" />
        </mxCell>
        <mxCell id="JQ1FOKL0dIYRwgrjahHT-47" value="&lt;font style=&quot;font-size: 10px;&quot;&gt;15. Cap nhat bang PROJECT()&lt;/font&gt;" style="html=1;verticalAlign=bottom;endArrow=block;labelBackgroundColor=none;fontFamily=Verdana;fontSize=12;edgeStyle=elbowEdgeStyle;elbow=vertical;exitX=1.2;exitY=0.031;exitDx=0;exitDy=0;exitPerimeter=0;" parent="1" edge="1">
          <mxGeometry relative="1" as="geometry">
            <mxPoint x="475" y="920" as="sourcePoint" />
            <mxPoint x="889.5" y="920" as="targetPoint" />
          </mxGeometry>
        </mxCell>
        <mxCell id="JQ1FOKL0dIYRwgrjahHT-71" value="" style="html=1;points=[];perimeter=orthogonalPerimeter;rounded=0;shadow=0;comic=0;labelBackgroundColor=none;strokeWidth=1;fontFamily=Verdana;fontSize=12;align=center;" parent="1" vertex="1">
          <mxGeometry x="691" y="1280" width="10" height="30" as="geometry" />
        </mxCell>
        <mxCell id="JQ1FOKL0dIYRwgrjahHT-95" value="" style="group" parent="1" vertex="1" connectable="0">
          <mxGeometry x="460" y="1610" width="239.00000000000003" height="30" as="geometry" />
        </mxCell>
        <mxCell id="JQ1FOKL0dIYRwgrjahHT-91" value="" style="group" parent="JQ1FOKL0dIYRwgrjahHT-95" vertex="1" connectable="0">
          <mxGeometry width="211.96000000000004" height="30" as="geometry" />
        </mxCell>
        <mxCell id="JQ1FOKL0dIYRwgrjahHT-93" value="&lt;font style=&quot;font-size: 10px;&quot;&gt;28. setProjectById()&lt;/font&gt;" style="html=1;verticalAlign=bottom;endArrow=block;labelBackgroundColor=none;fontFamily=Verdana;fontSize=12;edgeStyle=elbowEdgeStyle;elbow=vertical;exitX=1.2;exitY=0.031;exitDx=0;exitDy=0;exitPerimeter=0;entryX=0.22;entryY=0.047;entryDx=0;entryDy=0;entryPerimeter=0;" parent="JQ1FOKL0dIYRwgrjahHT-91" target="JQ1FOKL0dIYRwgrjahHT-92" edge="1">
          <mxGeometry relative="1" as="geometry">
            <mxPoint as="sourcePoint" />
            <mxPoint x="198" as="targetPoint" />
          </mxGeometry>
        </mxCell>
        <mxCell id="JQ1FOKL0dIYRwgrjahHT-94" value="" style="html=1;points=[];perimeter=orthogonalPerimeter;rounded=0;shadow=0;comic=0;labelBackgroundColor=none;strokeWidth=1;fontFamily=Verdana;fontSize=12;align=center;" parent="JQ1FOKL0dIYRwgrjahHT-91" vertex="1">
          <mxGeometry x="5.684341886080802e-14" width="10" height="30" as="geometry" />
        </mxCell>
        <mxCell id="JQ1FOKL0dIYRwgrjahHT-92" value="" style="html=1;points=[];perimeter=orthogonalPerimeter;rounded=0;shadow=0;comic=0;labelBackgroundColor=none;strokeWidth=1;fontFamily=Verdana;fontSize=12;align=center;" parent="JQ1FOKL0dIYRwgrjahHT-95" vertex="1">
          <mxGeometry x="224.00000000000003" width="10" height="30" as="geometry" />
        </mxCell>
        <mxCell id="JQ1FOKL0dIYRwgrjahHT-169" value="" style="shape=umlBoundary;whiteSpace=wrap;html=1;" parent="1" vertex="1">
          <mxGeometry x="237.81" y="60" width="75" height="60" as="geometry" />
        </mxCell>
        <mxCell id="JQ1FOKL0dIYRwgrjahHT-170" value="" style="ellipse;shape=umlControl;whiteSpace=wrap;html=1;" parent="1" vertex="1">
          <mxGeometry x="440" y="50" width="60" height="70" as="geometry" />
        </mxCell>
        <mxCell id="JQ1FOKL0dIYRwgrjahHT-172" value="" style="ellipse;shape=umlEntity;whiteSpace=wrap;html=1;" parent="1" vertex="1">
          <mxGeometry x="670" y="60" width="60" height="60" as="geometry" />
        </mxCell>
        <mxCell id="JQ1FOKL0dIYRwgrjahHT-235" value=": PROJECT" style="text;html=1;align=center;verticalAlign=middle;resizable=0;points=[];autosize=1;strokeColor=none;fillColor=none;" parent="1" vertex="1">
          <mxGeometry x="655" y="128" width="90" height="30" as="geometry" />
        </mxCell>
        <mxCell id="7baba1c4bc27f4b0-19" value="" style="html=1;points=[];perimeter=orthogonalPerimeter;rounded=0;shadow=0;comic=0;labelBackgroundColor=none;strokeWidth=1;fontFamily=Verdana;fontSize=12;align=center;" parent="1" vertex="1">
          <mxGeometry x="885" y="240" width="10" height="30" as="geometry" />
        </mxCell>
        <mxCell id="JQ1FOKL0dIYRwgrjahHT-12" value="" style="html=1;points=[];perimeter=orthogonalPerimeter;rounded=0;shadow=0;comic=0;labelBackgroundColor=none;strokeWidth=1;fontFamily=Verdana;fontSize=12;align=center;" parent="1" vertex="1">
          <mxGeometry x="885" y="280" width="10" height="30" as="geometry" />
        </mxCell>
        <mxCell id="JQ1FOKL0dIYRwgrjahHT-14" value="&lt;font style=&quot;font-size: 10px;&quot;&gt;4. Doc bang PROJECT()&lt;/font&gt;" style="html=1;verticalAlign=bottom;endArrow=block;labelBackgroundColor=none;fontFamily=Verdana;fontSize=12;edgeStyle=elbowEdgeStyle;elbow=vertical;" parent="1" edge="1">
          <mxGeometry relative="1" as="geometry">
            <mxPoint x="890" y="280" as="sourcePoint" />
            <Array as="points" />
            <mxPoint x="1015" y="280" as="targetPoint" />
          </mxGeometry>
        </mxCell>
        <mxCell id="JQ1FOKL0dIYRwgrjahHT-46" value="" style="html=1;points=[];perimeter=orthogonalPerimeter;rounded=0;shadow=0;comic=0;labelBackgroundColor=none;strokeWidth=1;fontFamily=Verdana;fontSize=12;align=center;" parent="1" vertex="1">
          <mxGeometry x="885" y="920" width="10" height="30" as="geometry" />
        </mxCell>
        <mxCell id="JQ1FOKL0dIYRwgrjahHT-48" value="" style="html=1;points=[];perimeter=orthogonalPerimeter;rounded=0;shadow=0;comic=0;labelBackgroundColor=none;strokeWidth=1;fontFamily=Verdana;fontSize=12;align=center;" parent="1" vertex="1">
          <mxGeometry x="885" y="970" width="10" height="30" as="geometry" />
        </mxCell>
        <mxCell id="JQ1FOKL0dIYRwgrjahHT-100" value="" style="html=1;points=[];perimeter=orthogonalPerimeter;rounded=0;shadow=0;comic=0;labelBackgroundColor=none;strokeWidth=1;fontFamily=Verdana;fontSize=12;align=center;" parent="1" vertex="1">
          <mxGeometry x="880" y="1658" width="10" height="30" as="geometry" />
        </mxCell>
        <mxCell id="7baba1c4bc27f4b0-13" value="" style="html=1;points=[];perimeter=orthogonalPerimeter;rounded=0;shadow=0;comic=0;labelBackgroundColor=none;strokeWidth=1;fontFamily=Verdana;fontSize=12;align=center;" parent="1" vertex="1">
          <mxGeometry x="465" y="200" width="10" height="30" as="geometry" />
        </mxCell>
        <mxCell id="JQ1FOKL0dIYRwgrjahHT-11" value="" style="html=1;points=[];perimeter=orthogonalPerimeter;rounded=0;shadow=0;comic=0;labelBackgroundColor=none;strokeWidth=1;fontFamily=Verdana;fontSize=12;align=center;" parent="1" vertex="1">
          <mxGeometry x="465" y="240" width="10" height="30" as="geometry" />
        </mxCell>
        <mxCell id="7baba1c4bc27f4b0-17" value="&lt;font style=&quot;font-size: 10px;&quot;&gt;3. Doc bang PROJECT()&lt;/font&gt;" style="html=1;verticalAlign=bottom;endArrow=block;labelBackgroundColor=none;fontFamily=Verdana;fontSize=12;edgeStyle=elbowEdgeStyle;elbow=vertical;" parent="1" edge="1">
          <mxGeometry relative="1" as="geometry">
            <mxPoint x="470" y="240" as="sourcePoint" />
            <Array as="points">
              <mxPoint x="465" y="240" />
            </Array>
            <mxPoint x="889.5" y="240" as="targetPoint" />
          </mxGeometry>
        </mxCell>
        <mxCell id="JQ1FOKL0dIYRwgrjahHT-15" value="" style="html=1;points=[];perimeter=orthogonalPerimeter;rounded=0;shadow=0;comic=0;labelBackgroundColor=none;strokeWidth=1;fontFamily=Verdana;fontSize=12;align=center;" parent="1" vertex="1">
          <mxGeometry x="465" y="320" width="10" height="30" as="geometry" />
        </mxCell>
        <mxCell id="JQ1FOKL0dIYRwgrjahHT-18" value="" style="html=1;points=[];perimeter=orthogonalPerimeter;rounded=0;shadow=0;comic=0;labelBackgroundColor=none;strokeWidth=1;fontFamily=Verdana;fontSize=12;align=center;" parent="1" vertex="1">
          <mxGeometry x="465" y="360" width="10" height="30" as="geometry" />
        </mxCell>
        <mxCell id="7baba1c4bc27f4b0-21" value="&lt;font style=&quot;font-size: 10px;&quot;&gt;6. return Ket Qua()&lt;/font&gt;" style="html=1;verticalAlign=bottom;endArrow=open;dashed=1;endSize=8;labelBackgroundColor=none;fontFamily=Verdana;fontSize=12;edgeStyle=elbowEdgeStyle;elbow=vertical;" parent="1" edge="1">
          <mxGeometry relative="1" as="geometry">
            <mxPoint x="270" y="360" as="targetPoint" />
            <Array as="points">
              <mxPoint x="270" y="360" />
              <mxPoint x="300" y="360" />
            </Array>
            <mxPoint x="470" y="360" as="sourcePoint" />
          </mxGeometry>
        </mxCell>
        <mxCell id="JQ1FOKL0dIYRwgrjahHT-38" value="&lt;font style=&quot;font-size: 10px;&quot;&gt;12. Sinh ra ma nguoi dung()&lt;/font&gt;" style="html=1;verticalAlign=bottom;endArrow=block;labelBackgroundColor=none;fontFamily=Verdana;fontSize=12;edgeStyle=elbowEdgeStyle;elbow=vertical;exitX=1.2;exitY=0.031;exitDx=0;exitDy=0;exitPerimeter=0;" parent="1" edge="1">
          <mxGeometry relative="1" as="geometry">
            <mxPoint x="273" y="770" as="sourcePoint" />
            <mxPoint x="471" y="770" as="targetPoint" />
          </mxGeometry>
        </mxCell>
        <mxCell id="JQ1FOKL0dIYRwgrjahHT-39" value="&lt;font style=&quot;font-size: 10px;&quot;&gt;13. Tao nguoi dung moi()&lt;/font&gt;" style="html=1;verticalAlign=bottom;endArrow=block;labelBackgroundColor=none;fontFamily=Verdana;fontSize=12;edgeStyle=elbowEdgeStyle;elbow=vertical;exitX=1.2;exitY=0.031;exitDx=0;exitDy=0;exitPerimeter=0;" parent="1" edge="1">
          <mxGeometry relative="1" as="geometry">
            <mxPoint x="271" y="820" as="sourcePoint" />
            <mxPoint x="469" y="820" as="targetPoint" />
          </mxGeometry>
        </mxCell>
        <mxCell id="JQ1FOKL0dIYRwgrjahHT-40" value="" style="html=1;points=[];perimeter=orthogonalPerimeter;rounded=0;shadow=0;comic=0;labelBackgroundColor=none;strokeWidth=1;fontFamily=Verdana;fontSize=12;align=center;" parent="1" vertex="1">
          <mxGeometry x="462" y="770" width="10" height="30" as="geometry" />
        </mxCell>
        <mxCell id="JQ1FOKL0dIYRwgrjahHT-41" value="" style="html=1;points=[];perimeter=orthogonalPerimeter;rounded=0;shadow=0;comic=0;labelBackgroundColor=none;strokeWidth=1;fontFamily=Verdana;fontSize=12;align=center;" parent="1" vertex="1">
          <mxGeometry x="462" y="820" width="10" height="30" as="geometry" />
        </mxCell>
        <mxCell id="JQ1FOKL0dIYRwgrjahHT-42" value="" style="html=1;points=[];perimeter=orthogonalPerimeter;rounded=0;shadow=0;comic=0;labelBackgroundColor=none;strokeWidth=1;fontFamily=Verdana;fontSize=12;align=center;" parent="1" vertex="1">
          <mxGeometry x="463" y="870" width="10" height="30" as="geometry" />
        </mxCell>
        <mxCell id="JQ1FOKL0dIYRwgrjahHT-43" value="" style="html=1;points=[];perimeter=orthogonalPerimeter;rounded=0;shadow=0;comic=0;labelBackgroundColor=none;strokeWidth=1;fontFamily=Verdana;fontSize=12;align=center;" parent="1" vertex="1">
          <mxGeometry x="463" y="920" width="10" height="30" as="geometry" />
        </mxCell>
        <mxCell id="JQ1FOKL0dIYRwgrjahHT-52" value="" style="html=1;points=[];perimeter=orthogonalPerimeter;rounded=0;shadow=0;comic=0;labelBackgroundColor=none;strokeWidth=1;fontFamily=Verdana;fontSize=12;align=center;" parent="1" vertex="1">
          <mxGeometry x="461" y="970" width="10" height="30" as="geometry" />
        </mxCell>
        <mxCell id="JQ1FOKL0dIYRwgrjahHT-51" value="&lt;font style=&quot;font-size: 10px;&quot;&gt;17. return Ket Qua()&lt;/font&gt;" style="html=1;verticalAlign=bottom;endArrow=open;dashed=1;endSize=8;labelBackgroundColor=none;fontFamily=Verdana;fontSize=12;edgeStyle=elbowEdgeStyle;elbow=vertical;entryX=0.224;entryY=-0.007;entryDx=0;entryDy=0;entryPerimeter=0;" parent="1" target="JQ1FOKL0dIYRwgrjahHT-53" edge="1">
          <mxGeometry relative="1" as="geometry">
            <mxPoint x="260" y="970" as="targetPoint" />
            <Array as="points">
              <mxPoint x="260" y="970" />
              <mxPoint x="290" y="970" />
            </Array>
            <mxPoint x="475" y="970" as="sourcePoint" />
          </mxGeometry>
        </mxCell>
        <mxCell id="JQ1FOKL0dIYRwgrjahHT-67" value="" style="html=1;points=[];perimeter=orthogonalPerimeter;rounded=0;shadow=0;comic=0;labelBackgroundColor=none;strokeWidth=1;fontFamily=Verdana;fontSize=12;align=center;" parent="1" vertex="1">
          <mxGeometry x="461.00000000000006" y="1230" width="10" height="30" as="geometry" />
        </mxCell>
        <mxCell id="JQ1FOKL0dIYRwgrjahHT-72" value="" style="html=1;points=[];perimeter=orthogonalPerimeter;rounded=0;shadow=0;comic=0;labelBackgroundColor=none;strokeWidth=1;fontFamily=Verdana;fontSize=12;align=center;" parent="1" vertex="1">
          <mxGeometry x="460.00000000000006" y="1330" width="10" height="30" as="geometry" />
        </mxCell>
        <mxCell id="JQ1FOKL0dIYRwgrjahHT-87" value="" style="group" parent="1" vertex="1" connectable="0">
          <mxGeometry x="260.03999999999996" y="1565" width="211.96000000000004" height="30" as="geometry" />
        </mxCell>
        <mxCell id="JQ1FOKL0dIYRwgrjahHT-88" value="&lt;span style=&quot;color: rgba(0, 0, 0, 0); font-family: monospace; font-size: 0px; text-align: start;&quot;&gt;%3CmxGraphModel%3E%3Croot%3E%3CmxCell%20id%3D%220%22%2F%3E%3CmxCell%20id%3D%221%22%20parent%3D%220%22%2F%3E%3CmxCell%20id%3D%222%22%20value%3D%22%26lt%3Bfont%20style%3D%26quot%3Bfont-size%3A%2010px%3B%26quot%3B%26gt%3B23.%20return%20Ket%20Qua()%26lt%3B%2Ffont%26gt%3B%22%20style%3D%22html%3D1%3BverticalAlign%3Dbottom%3BendArrow%3Dopen%3Bdashed%3D1%3BendSize%3D8%3BlabelBackgroundColor%3Dnone%3BfontFamily%3DVerdana%3BfontSize%3D12%3BedgeStyle%3DelbowEdgeStyle%3Belbow%3Dvertical%3B%22%20edge%3D%221%22%20parent%3D%221%22%3E%3CmxGeometry%20relative%3D%221%22%20as%3D%22geometry%22%3E%3CmxPoint%20x%3D%22261.96%22%20y%3D%221330%22%20as%3D%22targetPoint%22%2F%3E%3CArray%20as%3D%22points%22%3E%3CmxPoint%20x%3D%22261.96%22%20y%3D%221330%22%2F%3E%3CmxPoint%20x%3D%22291.96%22%20y%3D%221330%22%2F%3E%3C%2FArray%3E%3CmxPoint%20x%3D%22476.96%22%20y%3D%221330%22%20as%3D%22sourcePoint%22%2F%3E%3C%2FmxGeometry%3E%3C%2FmxCell%3E%3CmxCell%20id%3D%223%22%20value%3D%22%22%20style%3D%22group%22%20vertex%3D%221%22%20connectable%3D%220%22%20parent%3D%221%22%3E%3CmxGeometry%20x%3D%22261.96%22%20y%3D%221360%22%20width%3D%2264.62%22%20height%3D%22112.02000000000004%22%20as%3D%22geometry%22%2F%3E%3C%2FmxCell%3E%3CmxCell%20id%3D%224%22%20value%3D%22%22%20style%3D%22html%3D1%3Bpoints%3D%5B%5D%3Bperimeter%3DorthogonalPerimeter%3Brounded%3D0%3Bshadow%3D0%3Bcomic%3D0%3BlabelBackgroundColor%3Dnone%3BstrokeWidth%3D1%3BfontFamily%3DVerdana%3BfontSize%3D12%3Balign%3Dcenter%3B%22%20vertex%3D%221%22%20parent%3D%223%22%3E%3CmxGeometry%20y%3D%2220.02000000000004%22%20width%3D%2210%22%20height%3D%2280%22%20as%3D%22geometry%22%2F%3E%3C%2FmxCell%3E%3CmxCell%20id%3D%225%22%20value%3D%22%22%20style%3D%22html%3D1%3BverticalAlign%3Dbottom%3BendArrow%3Dblock%3BlabelBackgroundColor%3Dnone%3BfontFamily%3DVerdana%3BfontSize%3D12%3Belbow%3Dvertical%3BedgeStyle%3DorthogonalEdgeStyle%3Bcurved%3D1%3BentryX%3D1%3BentryY%3D0.286%3BentryPerimeter%3D0%3BexitX%3D1.038%3BexitY%3D0.345%3BexitPerimeter%3D0%3B%22%20edge%3D%221%22%20parent%3D%223%22%3E%3CmxGeometry%20x%3D%220.2984%22%20y%3D%2214%22%20relative%3D%221%22%20as%3D%22geometry%22%3E%3CmxPoint%20x%3D%2210.000000000000114%22%20y%3D%2220.020000000000024%22%20as%3D%22sourcePoint%22%2F%3E%3CmxPoint%20x%3D%2214.620000000000005%22%20y%3D%2257.93999999999998%22%20as%3D%22targetPoint%22%2F%3E%3CArray%20as%3D%22points%22%3E%3CmxPoint%20x%3D%2264.62%22%20y%3D%2219.92%22%2F%3E%3CmxPoint%20x%3D%2264.62%22%20y%3D%2257.92%22%2F%3E%3C%2FArray%3E%3CmxPoint%20x%3D%221%22%20as%3D%22offset%22%2F%3E%3C%2FmxGeometry%3E%3C%2FmxCell%3E%3CmxCell%20id%3D%226%22%20value%3D%22%22%20style%3D%22html%3D1%3Bpoints%3D%5B%5D%3Bperimeter%3DorthogonalPerimeter%3Brounded%3D0%3Bshadow%3D0%3Bcomic%3D0%3BlabelBackgroundColor%3Dnone%3BstrokeWidth%3D1%3BfontFamily%3DVerdana%3BfontSize%3D12%3Balign%3Dcenter%3B%22%20vertex%3D%221%22%20parent%3D%223%22%3E%3CmxGeometry%20x%3D%225%22%20y%3D%2257.02000000000004%22%20width%3D%2210%22%20height%3D%2230%22%20as%3D%22geometry%22%2F%3E%3C%2FmxCell%3E%3CmxCell%20id%3D%227%22%20value%3D%22%22%20style%3D%22html%3D1%3Bpoints%3D%5B%5D%3Bperimeter%3DorthogonalPerimeter%3Brounded%3D0%3Bshadow%3D0%3Bcomic%3D0%3BlabelBackgroundColor%3Dnone%3BstrokeWidth%3D1%3BfontFamily%3DVerdana%3BfontSize%3D12%3Balign%3Dcenter%3B%22%20vertex%3D%221%22%20parent%3D%221%22%3E%3CmxGeometry%20x%3D%22263.2900000000001%22%20y%3D%221330%22%20width%3D%2210%22%20height%3D%2230%22%20as%3D%22geometry%22%2F%3E%3C%2FmxCell%3E%3C%2Froot%3E%3C%2FmxGraphModel%3E&lt;/span&gt;" style="html=1;points=[];perimeter=orthogonalPerimeter;rounded=0;shadow=0;comic=0;labelBackgroundColor=none;strokeWidth=1;fontFamily=Verdana;fontSize=12;align=center;" parent="JQ1FOKL0dIYRwgrjahHT-87" vertex="1">
          <mxGeometry x="201.96000000000004" width="10" height="30" as="geometry" />
        </mxCell>
        <mxCell id="JQ1FOKL0dIYRwgrjahHT-89" value="&lt;font style=&quot;font-size: 10px;&quot;&gt;27. Sua thong tin Project()&lt;/font&gt;" style="html=1;verticalAlign=bottom;endArrow=block;labelBackgroundColor=none;fontFamily=Verdana;fontSize=12;edgeStyle=elbowEdgeStyle;elbow=vertical;exitX=1.2;exitY=0.031;exitDx=0;exitDy=0;exitPerimeter=0;" parent="JQ1FOKL0dIYRwgrjahHT-87" edge="1">
          <mxGeometry relative="1" as="geometry">
            <mxPoint as="sourcePoint" />
            <mxPoint x="198" as="targetPoint" />
          </mxGeometry>
        </mxCell>
        <mxCell id="JQ1FOKL0dIYRwgrjahHT-90" value="" style="html=1;points=[];perimeter=orthogonalPerimeter;rounded=0;shadow=0;comic=0;labelBackgroundColor=none;strokeWidth=1;fontFamily=Verdana;fontSize=12;align=center;" parent="JQ1FOKL0dIYRwgrjahHT-87" vertex="1">
          <mxGeometry x="5.000000000000057" width="10" height="30" as="geometry" />
        </mxCell>
        <mxCell id="JQ1FOKL0dIYRwgrjahHT-113" value="" style="html=1;points=[];perimeter=orthogonalPerimeter;rounded=0;shadow=0;comic=0;labelBackgroundColor=none;strokeWidth=1;fontFamily=Verdana;fontSize=12;align=center;" parent="1" vertex="1">
          <mxGeometry x="458" y="1760" width="10" height="30" as="geometry" />
        </mxCell>
        <mxCell id="JQ1FOKL0dIYRwgrjahHT-159" value="" style="html=1;points=[];perimeter=orthogonalPerimeter;rounded=0;shadow=0;comic=0;labelBackgroundColor=none;strokeWidth=1;fontFamily=Verdana;fontSize=12;align=center;" parent="1" vertex="1">
          <mxGeometry x="456.0000000000001" y="2320" width="10" height="30" as="geometry" />
        </mxCell>
        <mxCell id="JQ1FOKL0dIYRwgrjahHT-236" value="" style="endArrow=none;dashed=1;html=1;rounded=0;" parent="1" edge="1">
          <mxGeometry width="50" height="50" relative="1" as="geometry">
            <mxPoint x="460" y="2448" as="sourcePoint" />
            <mxPoint x="470" y="158" as="targetPoint" />
          </mxGeometry>
        </mxCell>
        <mxCell id="JQ1FOKL0dIYRwgrjahHT-143" value="" style="group" parent="1" vertex="1" connectable="0">
          <mxGeometry x="456" y="2210" width="211.96000000000004" height="30" as="geometry" />
        </mxCell>
        <mxCell id="JQ1FOKL0dIYRwgrjahHT-144" value="&lt;font style=&quot;font-size: 10px;&quot;&gt;38. deleteProjectById()&lt;/font&gt;" style="html=1;verticalAlign=bottom;endArrow=block;labelBackgroundColor=none;fontFamily=Verdana;fontSize=12;edgeStyle=elbowEdgeStyle;elbow=vertical;exitX=1.2;exitY=0.031;exitDx=0;exitDy=0;exitPerimeter=0;entryX=0.22;entryY=0.047;entryDx=0;entryDy=0;entryPerimeter=0;" parent="JQ1FOKL0dIYRwgrjahHT-143" target="JQ1FOKL0dIYRwgrjahHT-146" edge="1">
          <mxGeometry relative="1" as="geometry">
            <mxPoint as="sourcePoint" />
            <mxPoint x="198" as="targetPoint" />
          </mxGeometry>
        </mxCell>
        <mxCell id="JQ1FOKL0dIYRwgrjahHT-145" value="" style="html=1;points=[];perimeter=orthogonalPerimeter;rounded=0;shadow=0;comic=0;labelBackgroundColor=none;strokeWidth=1;fontFamily=Verdana;fontSize=12;align=center;" parent="JQ1FOKL0dIYRwgrjahHT-143" vertex="1">
          <mxGeometry x="5.684341886080802e-14" width="10" height="30" as="geometry" />
        </mxCell>
        <mxCell id="JQ1FOKL0dIYRwgrjahHT-237" value=": QuanlyProjectController" style="text;html=1;align=center;verticalAlign=middle;resizable=0;points=[];autosize=1;strokeColor=none;fillColor=none;" parent="1" vertex="1">
          <mxGeometry x="380" y="128" width="160" height="30" as="geometry" />
        </mxCell>
        <mxCell id="7baba1c4bc27f4b0-10" value="" style="html=1;points=[];perimeter=orthogonalPerimeter;rounded=0;shadow=0;comic=0;labelBackgroundColor=none;strokeWidth=1;fontFamily=Verdana;fontSize=12;align=center;" parent="1" vertex="1">
          <mxGeometry x="271" y="160" width="10" height="30" as="geometry" />
        </mxCell>
        <mxCell id="JQ1FOKL0dIYRwgrjahHT-8" value="" style="html=1;points=[];perimeter=orthogonalPerimeter;rounded=0;shadow=0;comic=0;labelBackgroundColor=none;strokeWidth=1;fontFamily=Verdana;fontSize=12;align=center;" parent="1" vertex="1">
          <mxGeometry x="271" y="200" width="10" height="30" as="geometry" />
        </mxCell>
        <mxCell id="JQ1FOKL0dIYRwgrjahHT-21" value="" style="group" parent="1" vertex="1" connectable="0">
          <mxGeometry x="270" y="380.97999999999996" width="64.62" height="112.02000000000004" as="geometry" />
        </mxCell>
        <mxCell id="JQ1FOKL0dIYRwgrjahHT-19" value="" style="html=1;points=[];perimeter=orthogonalPerimeter;rounded=0;shadow=0;comic=0;labelBackgroundColor=none;strokeWidth=1;fontFamily=Verdana;fontSize=12;align=center;" parent="JQ1FOKL0dIYRwgrjahHT-21" vertex="1">
          <mxGeometry y="20.02000000000004" width="10" height="80" as="geometry" />
        </mxCell>
        <mxCell id="7baba1c4bc27f4b0-35" value="" style="html=1;verticalAlign=bottom;endArrow=block;labelBackgroundColor=none;fontFamily=Verdana;fontSize=12;elbow=vertical;edgeStyle=orthogonalEdgeStyle;curved=1;entryX=1;entryY=0.286;entryPerimeter=0;exitX=1.038;exitY=0.345;exitPerimeter=0;" parent="JQ1FOKL0dIYRwgrjahHT-21" edge="1">
          <mxGeometry x="0.2984" y="14" relative="1" as="geometry">
            <mxPoint x="10.000000000000114" y="20.020000000000024" as="sourcePoint" />
            <mxPoint x="14.620000000000005" y="57.93999999999998" as="targetPoint" />
            <Array as="points">
              <mxPoint x="64.62" y="19.92" />
              <mxPoint x="64.62" y="57.92" />
            </Array>
            <mxPoint x="1" as="offset" />
          </mxGeometry>
        </mxCell>
        <mxCell id="JQ1FOKL0dIYRwgrjahHT-20" value="" style="html=1;points=[];perimeter=orthogonalPerimeter;rounded=0;shadow=0;comic=0;labelBackgroundColor=none;strokeWidth=1;fontFamily=Verdana;fontSize=12;align=center;" parent="JQ1FOKL0dIYRwgrjahHT-21" vertex="1">
          <mxGeometry x="5" y="57.02000000000004" width="10" height="30" as="geometry" />
        </mxCell>
        <mxCell id="JQ1FOKL0dIYRwgrjahHT-22" value="" style="html=1;points=[];perimeter=orthogonalPerimeter;rounded=0;shadow=0;comic=0;labelBackgroundColor=none;strokeWidth=1;fontFamily=Verdana;fontSize=12;align=center;" parent="1" vertex="1">
          <mxGeometry x="270" y="357.98" width="10" height="30" as="geometry" />
        </mxCell>
        <mxCell id="JQ1FOKL0dIYRwgrjahHT-24" value="&lt;font style=&quot;font-size: 10px;&quot;&gt;8. Chon Them()&lt;/font&gt;" style="html=1;verticalAlign=bottom;endArrow=block;labelBackgroundColor=none;fontFamily=Verdana;fontSize=12;edgeStyle=elbowEdgeStyle;elbow=vertical;exitX=1.2;exitY=0.031;exitDx=0;exitDy=0;exitPerimeter=0;" parent="1" edge="1">
          <mxGeometry relative="1" as="geometry">
            <mxPoint x="57" y="520" as="sourcePoint" />
            <mxPoint x="270" y="520" as="targetPoint" />
          </mxGeometry>
        </mxCell>
        <mxCell id="JQ1FOKL0dIYRwgrjahHT-25" value="" style="html=1;points=[];perimeter=orthogonalPerimeter;rounded=0;shadow=0;comic=0;labelBackgroundColor=none;strokeWidth=1;fontFamily=Verdana;fontSize=12;align=center;" parent="1" vertex="1">
          <mxGeometry x="270.31" y="520" width="10" height="30" as="geometry" />
        </mxCell>
        <mxCell id="JQ1FOKL0dIYRwgrjahHT-26" value="" style="group" parent="1" vertex="1" connectable="0">
          <mxGeometry x="268.31" y="540" width="64.62" height="112.02000000000004" as="geometry" />
        </mxCell>
        <mxCell id="JQ1FOKL0dIYRwgrjahHT-27" value="" style="html=1;points=[];perimeter=orthogonalPerimeter;rounded=0;shadow=0;comic=0;labelBackgroundColor=none;strokeWidth=1;fontFamily=Verdana;fontSize=12;align=center;" parent="JQ1FOKL0dIYRwgrjahHT-26" vertex="1">
          <mxGeometry y="20.02000000000004" width="10" height="80" as="geometry" />
        </mxCell>
        <mxCell id="JQ1FOKL0dIYRwgrjahHT-28" value="" style="html=1;verticalAlign=bottom;endArrow=block;labelBackgroundColor=none;fontFamily=Verdana;fontSize=12;elbow=vertical;edgeStyle=orthogonalEdgeStyle;curved=1;entryX=1;entryY=0.286;entryPerimeter=0;exitX=1.038;exitY=0.345;exitPerimeter=0;" parent="JQ1FOKL0dIYRwgrjahHT-26" edge="1">
          <mxGeometry x="0.2984" y="14" relative="1" as="geometry">
            <mxPoint x="10.000000000000114" y="20.020000000000024" as="sourcePoint" />
            <mxPoint x="14.620000000000005" y="57.93999999999998" as="targetPoint" />
            <Array as="points">
              <mxPoint x="64.62" y="19.92" />
              <mxPoint x="64.62" y="57.92" />
            </Array>
            <mxPoint x="1" as="offset" />
          </mxGeometry>
        </mxCell>
        <mxCell id="JQ1FOKL0dIYRwgrjahHT-29" value="" style="html=1;points=[];perimeter=orthogonalPerimeter;rounded=0;shadow=0;comic=0;labelBackgroundColor=none;strokeWidth=1;fontFamily=Verdana;fontSize=12;align=center;" parent="JQ1FOKL0dIYRwgrjahHT-26" vertex="1">
          <mxGeometry x="5" y="57.02000000000004" width="10" height="30" as="geometry" />
        </mxCell>
        <mxCell id="JQ1FOKL0dIYRwgrjahHT-31" value="" style="html=1;points=[];perimeter=orthogonalPerimeter;rounded=0;shadow=0;comic=0;labelBackgroundColor=none;strokeWidth=1;fontFamily=Verdana;fontSize=12;align=center;" parent="1" vertex="1">
          <mxGeometry x="267.96000000000004" y="670" width="10" height="30" as="geometry" />
        </mxCell>
        <mxCell id="JQ1FOKL0dIYRwgrjahHT-32" value="" style="html=1;points=[];perimeter=orthogonalPerimeter;rounded=0;shadow=0;comic=0;labelBackgroundColor=none;strokeWidth=1;fontFamily=Verdana;fontSize=12;align=center;" parent="1" vertex="1">
          <mxGeometry x="267.96000000000004" y="720" width="10" height="30" as="geometry" />
        </mxCell>
        <mxCell id="JQ1FOKL0dIYRwgrjahHT-36" value="" style="html=1;points=[];perimeter=orthogonalPerimeter;rounded=0;shadow=0;comic=0;labelBackgroundColor=none;strokeWidth=1;fontFamily=Verdana;fontSize=12;align=center;" parent="1" vertex="1">
          <mxGeometry x="267.96000000000004" y="770" width="10" height="30" as="geometry" />
        </mxCell>
        <mxCell id="JQ1FOKL0dIYRwgrjahHT-37" value="" style="html=1;points=[];perimeter=orthogonalPerimeter;rounded=0;shadow=0;comic=0;labelBackgroundColor=none;strokeWidth=1;fontFamily=Verdana;fontSize=12;align=center;" parent="1" vertex="1">
          <mxGeometry x="267.96000000000004" y="820" width="10" height="30" as="geometry" />
        </mxCell>
        <mxCell id="JQ1FOKL0dIYRwgrjahHT-53" value="" style="html=1;points=[];perimeter=orthogonalPerimeter;rounded=0;shadow=0;comic=0;labelBackgroundColor=none;strokeWidth=1;fontFamily=Verdana;fontSize=12;align=center;" parent="1" vertex="1">
          <mxGeometry x="266.96000000000004" y="970" width="10" height="30" as="geometry" />
        </mxCell>
        <mxCell id="JQ1FOKL0dIYRwgrjahHT-55" value="" style="group" parent="1" vertex="1" connectable="0">
          <mxGeometry x="266" y="1000" width="64.62" height="112.02000000000004" as="geometry" />
        </mxCell>
        <mxCell id="JQ1FOKL0dIYRwgrjahHT-56" value="" style="html=1;points=[];perimeter=orthogonalPerimeter;rounded=0;shadow=0;comic=0;labelBackgroundColor=none;strokeWidth=1;fontFamily=Verdana;fontSize=12;align=center;" parent="JQ1FOKL0dIYRwgrjahHT-55" vertex="1">
          <mxGeometry y="20.02000000000004" width="10" height="80" as="geometry" />
        </mxCell>
        <mxCell id="JQ1FOKL0dIYRwgrjahHT-57" value="" style="html=1;verticalAlign=bottom;endArrow=block;labelBackgroundColor=none;fontFamily=Verdana;fontSize=12;elbow=vertical;edgeStyle=orthogonalEdgeStyle;curved=1;entryX=1;entryY=0.286;entryPerimeter=0;exitX=1.038;exitY=0.345;exitPerimeter=0;" parent="JQ1FOKL0dIYRwgrjahHT-55" edge="1">
          <mxGeometry x="0.2984" y="14" relative="1" as="geometry">
            <mxPoint x="10.000000000000114" y="20.020000000000024" as="sourcePoint" />
            <mxPoint x="14.620000000000005" y="57.93999999999998" as="targetPoint" />
            <Array as="points">
              <mxPoint x="64.62" y="19.92" />
              <mxPoint x="64.62" y="57.92" />
            </Array>
            <mxPoint x="1" as="offset" />
          </mxGeometry>
        </mxCell>
        <mxCell id="JQ1FOKL0dIYRwgrjahHT-58" value="" style="html=1;points=[];perimeter=orthogonalPerimeter;rounded=0;shadow=0;comic=0;labelBackgroundColor=none;strokeWidth=1;fontFamily=Verdana;fontSize=12;align=center;" parent="JQ1FOKL0dIYRwgrjahHT-55" vertex="1">
          <mxGeometry x="5" y="57.02000000000004" width="10" height="30" as="geometry" />
        </mxCell>
        <mxCell id="JQ1FOKL0dIYRwgrjahHT-63" value="" style="html=1;points=[];perimeter=orthogonalPerimeter;rounded=0;shadow=0;comic=0;labelBackgroundColor=none;strokeWidth=1;fontFamily=Verdana;fontSize=12;align=center;" parent="1" vertex="1">
          <mxGeometry x="266.00000000000006" y="1180" width="10" height="30" as="geometry" />
        </mxCell>
        <mxCell id="JQ1FOKL0dIYRwgrjahHT-64" value="&lt;font style=&quot;font-size: 10px;&quot;&gt;20. Click Sua()&lt;/font&gt;" style="html=1;verticalAlign=bottom;endArrow=block;labelBackgroundColor=none;fontFamily=Verdana;fontSize=12;edgeStyle=elbowEdgeStyle;elbow=vertical;exitX=1.2;exitY=0.031;exitDx=0;exitDy=0;exitPerimeter=0;entryX=0.08;entryY=0.033;entryDx=0;entryDy=0;entryPerimeter=0;" parent="1" target="JQ1FOKL0dIYRwgrjahHT-63" edge="1">
          <mxGeometry relative="1" as="geometry">
            <mxPoint x="58.03999999999999" y="1180" as="sourcePoint" />
            <mxPoint x="256.04" y="1180" as="targetPoint" />
          </mxGeometry>
        </mxCell>
        <mxCell id="JQ1FOKL0dIYRwgrjahHT-65" value="" style="html=1;points=[];perimeter=orthogonalPerimeter;rounded=0;shadow=0;comic=0;labelBackgroundColor=none;strokeWidth=1;fontFamily=Verdana;fontSize=12;align=center;" parent="1" vertex="1">
          <mxGeometry x="265.31000000000006" y="1230" width="10" height="30" as="geometry" />
        </mxCell>
        <mxCell id="JQ1FOKL0dIYRwgrjahHT-73" value="&lt;font style=&quot;font-size: 10px;&quot;&gt;23. return Ket Qua()&lt;/font&gt;" style="html=1;verticalAlign=bottom;endArrow=open;dashed=1;endSize=8;labelBackgroundColor=none;fontFamily=Verdana;fontSize=12;edgeStyle=elbowEdgeStyle;elbow=vertical;" parent="1" edge="1">
          <mxGeometry relative="1" as="geometry">
            <mxPoint x="261.96" y="1330" as="targetPoint" />
            <Array as="points">
              <mxPoint x="261.96" y="1330" />
              <mxPoint x="291.96" y="1330" />
            </Array>
            <mxPoint x="476.96" y="1330" as="sourcePoint" />
          </mxGeometry>
        </mxCell>
        <mxCell id="JQ1FOKL0dIYRwgrjahHT-74" value="" style="group" parent="1" vertex="1" connectable="0">
          <mxGeometry x="264.96" y="1360" width="64.62" height="112.02000000000004" as="geometry" />
        </mxCell>
        <mxCell id="JQ1FOKL0dIYRwgrjahHT-75" value="" style="html=1;points=[];perimeter=orthogonalPerimeter;rounded=0;shadow=0;comic=0;labelBackgroundColor=none;strokeWidth=1;fontFamily=Verdana;fontSize=12;align=center;" parent="JQ1FOKL0dIYRwgrjahHT-74" vertex="1">
          <mxGeometry y="20.02000000000004" width="10" height="80" as="geometry" />
        </mxCell>
        <mxCell id="JQ1FOKL0dIYRwgrjahHT-76" value="" style="html=1;verticalAlign=bottom;endArrow=block;labelBackgroundColor=none;fontFamily=Verdana;fontSize=12;elbow=vertical;edgeStyle=orthogonalEdgeStyle;curved=1;entryX=1;entryY=0.286;entryPerimeter=0;exitX=1.038;exitY=0.345;exitPerimeter=0;" parent="JQ1FOKL0dIYRwgrjahHT-74" edge="1">
          <mxGeometry x="0.2984" y="14" relative="1" as="geometry">
            <mxPoint x="10.000000000000114" y="20.020000000000024" as="sourcePoint" />
            <mxPoint x="14.620000000000005" y="57.93999999999998" as="targetPoint" />
            <Array as="points">
              <mxPoint x="64.62" y="19.92" />
              <mxPoint x="64.62" y="57.92" />
            </Array>
            <mxPoint x="1" as="offset" />
          </mxGeometry>
        </mxCell>
        <mxCell id="JQ1FOKL0dIYRwgrjahHT-77" value="" style="html=1;points=[];perimeter=orthogonalPerimeter;rounded=0;shadow=0;comic=0;labelBackgroundColor=none;strokeWidth=1;fontFamily=Verdana;fontSize=12;align=center;" parent="JQ1FOKL0dIYRwgrjahHT-74" vertex="1">
          <mxGeometry x="5" y="57.02000000000004" width="10" height="30" as="geometry" />
        </mxCell>
        <mxCell id="JQ1FOKL0dIYRwgrjahHT-78" value="" style="html=1;points=[];perimeter=orthogonalPerimeter;rounded=0;shadow=0;comic=0;labelBackgroundColor=none;strokeWidth=1;fontFamily=Verdana;fontSize=12;align=center;" parent="1" vertex="1">
          <mxGeometry x="265.2900000000001" y="1330" width="10" height="30" as="geometry" />
        </mxCell>
        <mxCell id="JQ1FOKL0dIYRwgrjahHT-80" value="" style="group" parent="1" vertex="1" connectable="0">
          <mxGeometry x="64.35" y="1130" width="211.96000000000004" height="30" as="geometry" />
        </mxCell>
        <mxCell id="JQ1FOKL0dIYRwgrjahHT-61" value="" style="html=1;points=[];perimeter=orthogonalPerimeter;rounded=0;shadow=0;comic=0;labelBackgroundColor=none;strokeWidth=1;fontFamily=Verdana;fontSize=12;align=center;" parent="JQ1FOKL0dIYRwgrjahHT-80" vertex="1">
          <mxGeometry x="201.96000000000004" width="10" height="30" as="geometry" />
        </mxCell>
        <mxCell id="JQ1FOKL0dIYRwgrjahHT-62" value="&lt;font style=&quot;font-size: 10px;&quot;&gt;19. Chon Project can sua()&lt;/font&gt;" style="html=1;verticalAlign=bottom;endArrow=block;labelBackgroundColor=none;fontFamily=Verdana;fontSize=12;edgeStyle=elbowEdgeStyle;elbow=vertical;exitX=1.2;exitY=0.031;exitDx=0;exitDy=0;exitPerimeter=0;" parent="JQ1FOKL0dIYRwgrjahHT-80" edge="1">
          <mxGeometry relative="1" as="geometry">
            <mxPoint as="sourcePoint" />
            <mxPoint x="198" as="targetPoint" />
          </mxGeometry>
        </mxCell>
        <mxCell id="JQ1FOKL0dIYRwgrjahHT-81" value="" style="group" parent="1" vertex="1" connectable="0">
          <mxGeometry x="64.03999999999999" y="1480" width="211.96000000000004" height="30" as="geometry" />
        </mxCell>
        <mxCell id="JQ1FOKL0dIYRwgrjahHT-82" value="&lt;span style=&quot;color: rgba(0, 0, 0, 0); font-family: monospace; font-size: 0px; text-align: start;&quot;&gt;%3CmxGraphModel%3E%3Croot%3E%3CmxCell%20id%3D%220%22%2F%3E%3CmxCell%20id%3D%221%22%20parent%3D%220%22%2F%3E%3CmxCell%20id%3D%222%22%20value%3D%22%22%20style%3D%22group%22%20vertex%3D%221%22%20connectable%3D%220%22%20parent%3D%221%22%3E%3CmxGeometry%20x%3D%2259.99999999999999%22%20y%3D%221520%22%20width%3D%22211.96000000000004%22%20height%3D%2230%22%20as%3D%22geometry%22%2F%3E%3C%2FmxCell%3E%3CmxCell%20id%3D%223%22%20value%3D%22%22%20style%3D%22html%3D1%3Bpoints%3D%5B%5D%3Bperimeter%3DorthogonalPerimeter%3Brounded%3D0%3Bshadow%3D0%3Bcomic%3D0%3BlabelBackgroundColor%3Dnone%3BstrokeWidth%3D1%3BfontFamily%3DVerdana%3BfontSize%3D12%3Balign%3Dcenter%3B%22%20vertex%3D%221%22%20parent%3D%222%22%3E%3CmxGeometry%20x%3D%22201.96000000000004%22%20width%3D%2210%22%20height%3D%2230%22%20as%3D%22geometry%22%2F%3E%3C%2FmxCell%3E%3CmxCell%20id%3D%224%22%20value%3D%22%26lt%3Bfont%20style%3D%26quot%3Bfont-size%3A%2010px%3B%26quot%3B%26gt%3B26.%20CLick%20Sua()%26lt%3B%2Ffont%26gt%3B%22%20style%3D%22html%3D1%3BverticalAlign%3Dbottom%3BendArrow%3Dblock%3BlabelBackgroundColor%3Dnone%3BfontFamily%3DVerdana%3BfontSize%3D12%3BedgeStyle%3DelbowEdgeStyle%3Belbow%3Dvertical%3BexitX%3D1.2%3BexitY%3D0.031%3BexitDx%3D0%3BexitDy%3D0%3BexitPerimeter%3D0%3B%22%20edge%3D%221%22%20parent%3D%222%22%3E%3CmxGeometry%20relative%3D%221%22%20as%3D%22geometry%22%3E%3CmxPoint%20as%3D%22sourcePoint%22%2F%3E%3CmxPoint%20x%3D%22198%22%20as%3D%22targetPoint%22%2F%3E%3C%2FmxGeometry%3E%3C%2FmxCell%3E%3C%2Froot%3E%3C%2FmxGraphModel%3E&lt;/span&gt;" style="html=1;points=[];perimeter=orthogonalPerimeter;rounded=0;shadow=0;comic=0;labelBackgroundColor=none;strokeWidth=1;fontFamily=Verdana;fontSize=12;align=center;" parent="JQ1FOKL0dIYRwgrjahHT-81" vertex="1">
          <mxGeometry x="201.96000000000004" width="10" height="30" as="geometry" />
        </mxCell>
        <mxCell id="JQ1FOKL0dIYRwgrjahHT-83" value="&lt;font style=&quot;font-size: 10px;&quot;&gt;25. Nhap thong tin Project can sua()&lt;/font&gt;" style="html=1;verticalAlign=bottom;endArrow=block;labelBackgroundColor=none;fontFamily=Verdana;fontSize=12;edgeStyle=elbowEdgeStyle;elbow=vertical;exitX=1.2;exitY=0.031;exitDx=0;exitDy=0;exitPerimeter=0;" parent="JQ1FOKL0dIYRwgrjahHT-81" edge="1">
          <mxGeometry relative="1" as="geometry">
            <mxPoint as="sourcePoint" />
            <mxPoint x="198" as="targetPoint" />
          </mxGeometry>
        </mxCell>
        <mxCell id="JQ1FOKL0dIYRwgrjahHT-106" value="&lt;font style=&quot;font-size: 10px;&quot;&gt;31. return Ket Qua()&lt;/font&gt;" style="html=1;verticalAlign=bottom;endArrow=open;dashed=1;endSize=8;labelBackgroundColor=none;fontFamily=Verdana;fontSize=12;edgeStyle=elbowEdgeStyle;elbow=vertical;" parent="1" edge="1">
          <mxGeometry relative="1" as="geometry">
            <mxPoint x="261.31" y="1760" as="targetPoint" />
            <Array as="points">
              <mxPoint x="261.31" y="1760" />
              <mxPoint x="291.31" y="1760" />
            </Array>
            <mxPoint x="476.31" y="1760" as="sourcePoint" />
          </mxGeometry>
        </mxCell>
        <mxCell id="JQ1FOKL0dIYRwgrjahHT-107" value="" style="group" parent="1" vertex="1" connectable="0">
          <mxGeometry x="261.31" y="1790" width="64.62" height="112.02000000000004" as="geometry" />
        </mxCell>
        <mxCell id="JQ1FOKL0dIYRwgrjahHT-108" value="" style="html=1;points=[];perimeter=orthogonalPerimeter;rounded=0;shadow=0;comic=0;labelBackgroundColor=none;strokeWidth=1;fontFamily=Verdana;fontSize=12;align=center;" parent="JQ1FOKL0dIYRwgrjahHT-107" vertex="1">
          <mxGeometry y="20.02000000000004" width="10" height="80" as="geometry" />
        </mxCell>
        <mxCell id="JQ1FOKL0dIYRwgrjahHT-109" value="" style="html=1;verticalAlign=bottom;endArrow=block;labelBackgroundColor=none;fontFamily=Verdana;fontSize=12;elbow=vertical;edgeStyle=orthogonalEdgeStyle;curved=1;entryX=1;entryY=0.286;entryPerimeter=0;exitX=1.038;exitY=0.345;exitPerimeter=0;" parent="JQ1FOKL0dIYRwgrjahHT-107" edge="1">
          <mxGeometry x="0.2984" y="14" relative="1" as="geometry">
            <mxPoint x="10.000000000000114" y="20.020000000000024" as="sourcePoint" />
            <mxPoint x="14.620000000000005" y="57.93999999999998" as="targetPoint" />
            <Array as="points">
              <mxPoint x="64.62" y="19.92" />
              <mxPoint x="64.62" y="57.92" />
            </Array>
            <mxPoint x="1" as="offset" />
          </mxGeometry>
        </mxCell>
        <mxCell id="JQ1FOKL0dIYRwgrjahHT-110" value="" style="html=1;points=[];perimeter=orthogonalPerimeter;rounded=0;shadow=0;comic=0;labelBackgroundColor=none;strokeWidth=1;fontFamily=Verdana;fontSize=12;align=center;" parent="JQ1FOKL0dIYRwgrjahHT-107" vertex="1">
          <mxGeometry x="5" y="57.02000000000004" width="10" height="30" as="geometry" />
        </mxCell>
        <mxCell id="JQ1FOKL0dIYRwgrjahHT-111" value="" style="html=1;points=[];perimeter=orthogonalPerimeter;rounded=0;shadow=0;comic=0;labelBackgroundColor=none;strokeWidth=1;fontFamily=Verdana;fontSize=12;align=center;" parent="1" vertex="1">
          <mxGeometry x="264.6400000000001" y="1760" width="10" height="30" as="geometry" />
        </mxCell>
        <mxCell id="JQ1FOKL0dIYRwgrjahHT-115" value="" style="group" parent="1" vertex="1" connectable="0">
          <mxGeometry x="61.329999999999984" y="1920" width="211.96000000000004" height="30" as="geometry" />
        </mxCell>
        <mxCell id="JQ1FOKL0dIYRwgrjahHT-116" value="&lt;span style=&quot;color: rgba(0, 0, 0, 0); font-family: monospace; font-size: 0px; text-align: start;&quot;&gt;%3CmxGraphModel%3E%3Croot%3E%3CmxCell%20id%3D%220%22%2F%3E%3CmxCell%20id%3D%221%22%20parent%3D%220%22%2F%3E%3CmxCell%20id%3D%222%22%20value%3D%22%22%20style%3D%22group%22%20vertex%3D%221%22%20connectable%3D%220%22%20parent%3D%221%22%3E%3CmxGeometry%20x%3D%2259.99999999999999%22%20y%3D%221520%22%20width%3D%22211.96000000000004%22%20height%3D%2230%22%20as%3D%22geometry%22%2F%3E%3C%2FmxCell%3E%3CmxCell%20id%3D%223%22%20value%3D%22%22%20style%3D%22html%3D1%3Bpoints%3D%5B%5D%3Bperimeter%3DorthogonalPerimeter%3Brounded%3D0%3Bshadow%3D0%3Bcomic%3D0%3BlabelBackgroundColor%3Dnone%3BstrokeWidth%3D1%3BfontFamily%3DVerdana%3BfontSize%3D12%3Balign%3Dcenter%3B%22%20vertex%3D%221%22%20parent%3D%222%22%3E%3CmxGeometry%20x%3D%22201.96000000000004%22%20width%3D%2210%22%20height%3D%2230%22%20as%3D%22geometry%22%2F%3E%3C%2FmxCell%3E%3CmxCell%20id%3D%224%22%20value%3D%22%26lt%3Bfont%20style%3D%26quot%3Bfont-size%3A%2010px%3B%26quot%3B%26gt%3B26.%20CLick%20Sua()%26lt%3B%2Ffont%26gt%3B%22%20style%3D%22html%3D1%3BverticalAlign%3Dbottom%3BendArrow%3Dblock%3BlabelBackgroundColor%3Dnone%3BfontFamily%3DVerdana%3BfontSize%3D12%3BedgeStyle%3DelbowEdgeStyle%3Belbow%3Dvertical%3BexitX%3D1.2%3BexitY%3D0.031%3BexitDx%3D0%3BexitDy%3D0%3BexitPerimeter%3D0%3B%22%20edge%3D%221%22%20parent%3D%222%22%3E%3CmxGeometry%20relative%3D%221%22%20as%3D%22geometry%22%3E%3CmxPoint%20as%3D%22sourcePoint%22%2F%3E%3CmxPoint%20x%3D%22198%22%20as%3D%22targetPoint%22%2F%3E%3C%2FmxGeometry%3E%3C%2FmxCell%3E%3C%2Froot%3E%3C%2FmxGraphModel%3E&lt;/span&gt;" style="html=1;points=[];perimeter=orthogonalPerimeter;rounded=0;shadow=0;comic=0;labelBackgroundColor=none;strokeWidth=1;fontFamily=Verdana;fontSize=12;align=center;" parent="JQ1FOKL0dIYRwgrjahHT-115" vertex="1">
          <mxGeometry x="201.96000000000004" width="10" height="30" as="geometry" />
        </mxCell>
        <mxCell id="JQ1FOKL0dIYRwgrjahHT-117" value="&lt;font style=&quot;font-size: 10px;&quot;&gt;33. Chon Project can xoa()&lt;/font&gt;" style="html=1;verticalAlign=bottom;endArrow=block;labelBackgroundColor=none;fontFamily=Verdana;fontSize=12;edgeStyle=elbowEdgeStyle;elbow=vertical;exitX=1.2;exitY=0.031;exitDx=0;exitDy=0;exitPerimeter=0;" parent="JQ1FOKL0dIYRwgrjahHT-115" edge="1">
          <mxGeometry relative="1" as="geometry">
            <mxPoint as="sourcePoint" />
            <mxPoint x="198" as="targetPoint" />
          </mxGeometry>
        </mxCell>
        <mxCell id="JQ1FOKL0dIYRwgrjahHT-118" value="" style="group" parent="1" vertex="1" connectable="0">
          <mxGeometry x="61.329999999999984" y="2120" width="211.96000000000004" height="30" as="geometry" />
        </mxCell>
        <mxCell id="JQ1FOKL0dIYRwgrjahHT-119" value="&lt;span style=&quot;color: rgba(0, 0, 0, 0); font-family: monospace; font-size: 0px; text-align: start;&quot;&gt;%3CmxGraphModel%3E%3Croot%3E%3CmxCell%20id%3D%220%22%2F%3E%3CmxCell%20id%3D%221%22%20parent%3D%220%22%2F%3E%3CmxCell%20id%3D%222%22%20value%3D%22%22%20style%3D%22group%22%20vertex%3D%221%22%20connectable%3D%220%22%20parent%3D%221%22%3E%3CmxGeometry%20x%3D%2259.99999999999999%22%20y%3D%221520%22%20width%3D%22211.96000000000004%22%20height%3D%2230%22%20as%3D%22geometry%22%2F%3E%3C%2FmxCell%3E%3CmxCell%20id%3D%223%22%20value%3D%22%22%20style%3D%22html%3D1%3Bpoints%3D%5B%5D%3Bperimeter%3DorthogonalPerimeter%3Brounded%3D0%3Bshadow%3D0%3Bcomic%3D0%3BlabelBackgroundColor%3Dnone%3BstrokeWidth%3D1%3BfontFamily%3DVerdana%3BfontSize%3D12%3Balign%3Dcenter%3B%22%20vertex%3D%221%22%20parent%3D%222%22%3E%3CmxGeometry%20x%3D%22201.96000000000004%22%20width%3D%2210%22%20height%3D%2230%22%20as%3D%22geometry%22%2F%3E%3C%2FmxCell%3E%3CmxCell%20id%3D%224%22%20value%3D%22%26lt%3Bfont%20style%3D%26quot%3Bfont-size%3A%2010px%3B%26quot%3B%26gt%3B26.%20CLick%20Sua()%26lt%3B%2Ffont%26gt%3B%22%20style%3D%22html%3D1%3BverticalAlign%3Dbottom%3BendArrow%3Dblock%3BlabelBackgroundColor%3Dnone%3BfontFamily%3DVerdana%3BfontSize%3D12%3BedgeStyle%3DelbowEdgeStyle%3Belbow%3Dvertical%3BexitX%3D1.2%3BexitY%3D0.031%3BexitDx%3D0%3BexitDy%3D0%3BexitPerimeter%3D0%3B%22%20edge%3D%221%22%20parent%3D%222%22%3E%3CmxGeometry%20relative%3D%221%22%20as%3D%22geometry%22%3E%3CmxPoint%20as%3D%22sourcePoint%22%2F%3E%3CmxPoint%20x%3D%22198%22%20as%3D%22targetPoint%22%2F%3E%3C%2FmxGeometry%3E%3C%2FmxCell%3E%3C%2Froot%3E%3C%2FmxGraphModel%3E&lt;/span&gt;" style="html=1;points=[];perimeter=orthogonalPerimeter;rounded=0;shadow=0;comic=0;labelBackgroundColor=none;strokeWidth=1;fontFamily=Verdana;fontSize=12;align=center;" parent="JQ1FOKL0dIYRwgrjahHT-118" vertex="1">
          <mxGeometry x="201.96000000000004" width="10" height="30" as="geometry" />
        </mxCell>
        <mxCell id="JQ1FOKL0dIYRwgrjahHT-120" value="&lt;font style=&quot;font-size: 10px;&quot;&gt;36. Click Xac nhan()&lt;/font&gt;" style="html=1;verticalAlign=bottom;endArrow=block;labelBackgroundColor=none;fontFamily=Verdana;fontSize=12;edgeStyle=elbowEdgeStyle;elbow=vertical;exitX=1.2;exitY=0.031;exitDx=0;exitDy=0;exitPerimeter=0;" parent="JQ1FOKL0dIYRwgrjahHT-118" edge="1">
          <mxGeometry relative="1" as="geometry">
            <mxPoint as="sourcePoint" />
            <mxPoint x="198" as="targetPoint" />
          </mxGeometry>
        </mxCell>
        <mxCell id="JQ1FOKL0dIYRwgrjahHT-121" value="" style="group" parent="1" vertex="1" connectable="0">
          <mxGeometry x="263.29" y="2000" width="64.62" height="112.02000000000004" as="geometry" />
        </mxCell>
        <mxCell id="JQ1FOKL0dIYRwgrjahHT-122" value="" style="html=1;points=[];perimeter=orthogonalPerimeter;rounded=0;shadow=0;comic=0;labelBackgroundColor=none;strokeWidth=1;fontFamily=Verdana;fontSize=12;align=center;" parent="JQ1FOKL0dIYRwgrjahHT-121" vertex="1">
          <mxGeometry y="20.02000000000004" width="10" height="80" as="geometry" />
        </mxCell>
        <mxCell id="JQ1FOKL0dIYRwgrjahHT-123" value="" style="html=1;verticalAlign=bottom;endArrow=block;labelBackgroundColor=none;fontFamily=Verdana;fontSize=12;elbow=vertical;edgeStyle=orthogonalEdgeStyle;curved=1;entryX=1;entryY=0.286;entryPerimeter=0;exitX=1.038;exitY=0.345;exitPerimeter=0;" parent="JQ1FOKL0dIYRwgrjahHT-121" edge="1">
          <mxGeometry x="0.2984" y="14" relative="1" as="geometry">
            <mxPoint x="10.000000000000114" y="20.020000000000024" as="sourcePoint" />
            <mxPoint x="14.620000000000005" y="57.93999999999998" as="targetPoint" />
            <Array as="points">
              <mxPoint x="64.62" y="19.92" />
              <mxPoint x="64.62" y="57.92" />
            </Array>
            <mxPoint x="1" as="offset" />
          </mxGeometry>
        </mxCell>
        <mxCell id="JQ1FOKL0dIYRwgrjahHT-124" value="" style="html=1;points=[];perimeter=orthogonalPerimeter;rounded=0;shadow=0;comic=0;labelBackgroundColor=none;strokeWidth=1;fontFamily=Verdana;fontSize=12;align=center;" parent="JQ1FOKL0dIYRwgrjahHT-121" vertex="1">
          <mxGeometry x="5" y="57.02000000000004" width="10" height="30" as="geometry" />
        </mxCell>
        <mxCell id="JQ1FOKL0dIYRwgrjahHT-157" value="&lt;font style=&quot;font-size: 10px;&quot;&gt;41. return Ket Qua()&lt;/font&gt;" style="html=1;verticalAlign=bottom;endArrow=open;dashed=1;endSize=8;labelBackgroundColor=none;fontFamily=Verdana;fontSize=12;edgeStyle=elbowEdgeStyle;elbow=vertical;" parent="1" edge="1">
          <mxGeometry relative="1" as="geometry">
            <mxPoint x="262.29" y="2320" as="targetPoint" />
            <Array as="points">
              <mxPoint x="262.29" y="2320" />
              <mxPoint x="292.29" y="2320" />
            </Array>
            <mxPoint x="460" y="2320" as="sourcePoint" />
          </mxGeometry>
        </mxCell>
        <mxCell id="JQ1FOKL0dIYRwgrjahHT-158" value="" style="html=1;points=[];perimeter=orthogonalPerimeter;rounded=0;shadow=0;comic=0;labelBackgroundColor=none;strokeWidth=1;fontFamily=Verdana;fontSize=12;align=center;" parent="1" vertex="1">
          <mxGeometry x="263.6200000000001" y="2320" width="10" height="30" as="geometry" />
        </mxCell>
        <mxCell id="JQ1FOKL0dIYRwgrjahHT-160" value="" style="group" parent="1" vertex="1" connectable="0">
          <mxGeometry x="263.62" y="2350" width="64.62" height="112.02000000000004" as="geometry" />
        </mxCell>
        <mxCell id="JQ1FOKL0dIYRwgrjahHT-161" value="" style="html=1;points=[];perimeter=orthogonalPerimeter;rounded=0;shadow=0;comic=0;labelBackgroundColor=none;strokeWidth=1;fontFamily=Verdana;fontSize=12;align=center;" parent="JQ1FOKL0dIYRwgrjahHT-160" vertex="1">
          <mxGeometry y="20.02000000000004" width="10" height="80" as="geometry" />
        </mxCell>
        <mxCell id="JQ1FOKL0dIYRwgrjahHT-162" value="" style="html=1;verticalAlign=bottom;endArrow=block;labelBackgroundColor=none;fontFamily=Verdana;fontSize=12;elbow=vertical;edgeStyle=orthogonalEdgeStyle;curved=1;entryX=1;entryY=0.286;entryPerimeter=0;exitX=1.038;exitY=0.345;exitPerimeter=0;" parent="JQ1FOKL0dIYRwgrjahHT-160" edge="1">
          <mxGeometry x="0.2984" y="14" relative="1" as="geometry">
            <mxPoint x="10.000000000000114" y="20.020000000000024" as="sourcePoint" />
            <mxPoint x="14.620000000000005" y="57.93999999999998" as="targetPoint" />
            <Array as="points">
              <mxPoint x="64.62" y="19.92" />
              <mxPoint x="64.62" y="57.92" />
            </Array>
            <mxPoint x="1" as="offset" />
          </mxGeometry>
        </mxCell>
        <mxCell id="JQ1FOKL0dIYRwgrjahHT-163" value="" style="html=1;points=[];perimeter=orthogonalPerimeter;rounded=0;shadow=0;comic=0;labelBackgroundColor=none;strokeWidth=1;fontFamily=Verdana;fontSize=12;align=center;" parent="JQ1FOKL0dIYRwgrjahHT-160" vertex="1">
          <mxGeometry x="5" y="57.02000000000004" width="10" height="30" as="geometry" />
        </mxCell>
        <mxCell id="JQ1FOKL0dIYRwgrjahHT-245" value=": QuanlyProjectUI" style="text;html=1;align=center;verticalAlign=middle;resizable=0;points=[];autosize=1;strokeColor=none;fillColor=none;" parent="1" vertex="1">
          <mxGeometry x="211.96" y="120" width="120" height="30" as="geometry" />
        </mxCell>
        <mxCell id="JQ1FOKL0dIYRwgrjahHT-247" value="" style="shape=umlBoundary;whiteSpace=wrap;html=1;" parent="1" vertex="1">
          <mxGeometry x="852.5" y="60" width="75" height="60" as="geometry" />
        </mxCell>
        <mxCell id="JQ1FOKL0dIYRwgrjahHT-248" value=": ICSDL" style="text;html=1;align=center;verticalAlign=middle;resizable=0;points=[];autosize=1;strokeColor=none;fillColor=none;" parent="1" vertex="1">
          <mxGeometry x="855" y="128" width="70" height="30" as="geometry" />
        </mxCell>
      </root>
    </mxGraphModel>
  </diagram>
  <diagram id="20GfEyTrDos9-QeTp90U" name="Page-2">
    <mxGraphModel dx="1042" dy="580" grid="1" gridSize="10" guides="1" tooltips="1" connect="1" arrows="1" fold="1" page="1" pageScale="1" pageWidth="850" pageHeight="1100" math="0" shadow="0">
      <root>
        <mxCell id="0" />
        <mxCell id="1" parent="0" />
      </root>
    </mxGraphModel>
  </diagram>
</mxfile>
